<svg width="400" height="303" viewBox="0 0 400 303" fill="none" xmlns="http://www.w3.org/2000/svg">
<path d="M175.666 74.5498L0 186.24C40.2085 212.331 121.698 264.548 125.987 264.691C131.348 264.87 135.279 259.33 141.534 259.152C147.789 258.973 202.115 294.714 211.407 295.786C220.7 296.858 392.614 194.103 395.652 188.921C398.69 183.738 331.675 149.963 327.387 149.784C323.098 149.606 318.094 154.252 313.269 154.788C309.409 155.217 306.299 153.299 305.227 152.286L175.666 74.5498Z" fill="#179B6F"/>
<path d="M125.987 263.261C120.983 264.119 44.0803 213.641 10.3647 193.209L13.5814 202.859C48.5479 223.232 121.412 271.16 125.987 271.303C131.705 271.482 131.526 267.372 139.568 265.942C146.001 264.798 189.665 289.888 210.692 302.576C211.05 300.194 213.695 295.464 212.837 295.607C211.765 295.786 145.644 258.972 141.713 258.972C137.781 258.972 132.241 262.189 125.987 263.261Z" fill="#DFDFDF"/>
<path d="M42.1603 173.901C45.8774 168.183 71.8252 171.519 84.3346 173.901C141.877 167.706 254.533 158.033 267.685 147.453C284.126 134.229 308.43 164.251 312.719 159.248C317.008 154.244 334.521 182.837 326.3 191.415C318.08 199.992 308.787 228.228 300.924 234.661C293.061 241.094 258.393 237.878 247.313 234.661C236.233 231.444 235.876 258.965 219.792 262.539C203.709 266.113 183.337 251.817 173.329 239.665C163.322 227.513 145.809 242.881 130.798 251.817C115.786 260.752 84.3346 228.228 80.0456 222.152C75.7566 216.076 39.6584 200.35 42.1603 191.415C44.6622 182.479 37.514 181.05 42.1603 173.901Z" fill="#64A1CE"/>
<path d="M227.312 296.144C222.963 298.169 213.551 302.255 210.692 302.398V296.144C287.683 256.705 327.939 233.12 395.294 188.742V197.856L227.312 296.144Z" fill="#A8A8A8"/>
<path d="M137.359 124.826C147.414 102.972 154.596 93.8403 154.596 93.8403H167.524C167.524 93.8403 152.749 107.897 145.054 127.904C137.359 147.911 139.001 173.869 139.001 173.869L126.176 174.587C126.176 174.587 127.304 146.68 137.359 124.826Z" fill="#90C6E6"/>
<path d="M239.96 93.0195H254.324C254.324 93.0195 238.72 111.442 233.188 125.544C227.478 140.102 226.622 165.046 226.622 165.046H221.492V173.869H212.052V169.97C212.052 169.97 212.052 148.219 220.979 127.288C229.905 106.358 239.96 93.0195 239.96 93.0195Z" fill="#90C6E6"/>
<path d="M232.676 92.917H219.645C219.645 92.917 209.591 104.921 200.151 129.238C190.712 153.554 192.353 174.587 192.353 174.587H204.768V170.278C204.768 170.278 204.768 145.141 210.411 128.417C216.054 111.693 232.676 92.917 232.676 92.917Z" fill="#90C6E6"/>
<path d="M188.557 92.917H175.937C175.937 92.917 168.14 102.972 158.085 124.826C148.03 146.68 148.543 174.382 148.543 174.382H160.034C160.034 174.382 159.521 152.528 164.241 135.496C168.96 118.465 188.557 92.917 188.557 92.917Z" fill="#90C6E6"/>
<path d="M211.027 92.917H198.407C198.407 92.917 190.814 98.8679 179.631 128.109C168.447 157.35 171.012 175.613 171.012 175.613H182.401V173.254C182.401 173.254 182.401 147.09 188.044 129.546C193.687 112.001 211.027 92.917 211.027 92.917Z" fill="#90C6E6"/>
<path d="M211.027 173.869V169.765L212.361 171.92L216.003 172.843C216.499 169.269 217.583 162.091 217.952 161.968C218.414 161.814 218.927 172.176 220.312 172.228C221.42 172.269 223.852 164.994 224.929 161.352C224.844 165.217 224.673 173.131 224.673 173.869C224.673 174.608 215.576 174.177 211.027 173.869Z" fill="#65ABDC"/>
<path d="M220.21 130.11C224.47 119.173 234.728 103.793 234.728 103.793C231.128 111.032 230.297 114.598 229.136 120.824C233.842 107.974 236.866 103.561 242.628 98.3547C237.148 104.529 233.203 116.122 235.087 115.694C235.951 110.897 244.415 100.25 247.758 97.1235L240.473 111.026C240.473 111.026 234.457 121.231 231.547 128.212C226.912 139.331 223.596 158.017 223.596 158.017C222.046 152.548 222.364 149.256 223.134 143.345L218.876 164.327C218.887 155.073 218.495 150.354 222.262 136.676C221 139.072 220.285 140.353 219.338 145.295V142.114C217.303 149.066 216.154 152.969 212.976 160.531C212.976 160.531 215.777 141.488 220.21 130.11Z" fill="#AFE0F5"/>
<path d="M253.811 92.917H239.498L235.445 98.6114C236.181 97.9615 237.846 96.6619 238.626 96.6619C239.601 96.6619 238.421 97.9957 239.755 98.2522C241.088 98.5088 243.346 94.3534 244.474 94.7125C245.603 95.0716 242.32 97.7905 243.346 97.9957C244.372 98.2009 248.63 94.0969 249.348 94.3534C250.066 94.6099 248.168 96.6619 248.989 96.6619C249.645 96.6619 252.477 94.1653 253.811 92.917Z" fill="#65ABDC"/>
<path d="M190.25 173.305V169.201L191.225 171.971H195.175C195.619 168.637 196.642 161.906 197.176 161.66C197.842 161.352 197.689 172.792 198.817 172.741C199.72 172.7 202.34 165.849 203.537 162.429L204.358 173.305H190.25Z" fill="#65ABDC"/>
<path d="M200.151 128.007C204.265 117.989 213.848 103.895 213.848 103.895C211.865 109.419 208.183 120.22 208.205 120.465C208.222 120.651 220.903 98.3102 221.8 98.201C222.369 98.1316 213.335 115.643 214.31 115.284C215.003 115.029 221.447 105.462 225.633 99.123C226.54 97.7306 227.084 96.9185 227.084 96.9185C226.646 97.5863 226.157 98.3294 225.633 99.123C222.07 104.597 212.912 119.041 209.231 128.366C204.614 140.062 202.716 158.479 202.716 158.479L202.254 143.448L197.945 163.866C197.896 155.156 197.895 150.237 201.228 136.984C200.015 139.46 199.379 141.047 198.458 144.833V142.679L192.353 160.121C192.353 160.121 195.248 139.945 200.151 128.007Z" fill="#AFE0F5"/>
<path d="M214.772 98.4061L218.619 93.0195H231.906V93.9429L227.905 96.508C228.264 95.7556 228.89 94.1892 228.52 93.9429C228.059 93.6351 223.082 98.0983 222.416 97.8418C221.749 97.5853 224.365 94.8151 223.442 94.5585C222.518 94.302 219.389 98.4061 218.619 98.4061C217.85 98.4061 218.004 96.6106 217.491 96.508C217.08 96.4259 215.507 97.7392 214.772 98.4061Z" fill="#65ABDC"/>
<path d="M170.063 174.382V169.457C170.987 170.418 171.448 173.407 172.166 173.51C172.885 173.613 172.372 169.919 172.885 169.919C173.398 169.919 173.398 172.997 173.398 172.997H174.629C175.193 168.996 176.424 161.024 176.835 161.147C177.348 161.301 177.091 171.458 178.374 171.868C179.4 172.197 181.708 166.773 182.734 164.02L183.299 174.126L170.063 174.382Z" fill="#64A5D9"/>
<path d="M193.61 103.382C187.774 112.225 184.786 117.624 179.81 127.801C174.834 137.977 172.064 159.864 172.064 159.864C174.374 152.617 175.536 147.74 178.168 142.473V144.833C178.987 140.277 179.735 138.669 181.195 136.214C177.335 149.558 177.663 154.54 177.809 163.865C179.133 154.934 179.953 150.082 182.119 142.832C180.867 149.083 181.079 152.212 182.529 157.35C182.529 157.35 183.145 138.779 189.044 125.441C194.944 112.103 203.46 101.894 203.46 101.894L206.794 96.3535C201.232 102.563 198.032 105.826 193.61 115.078C194.981 107.647 197.583 104.181 201.408 97.6873C196.05 103.533 193.03 106.121 187.864 120.003C188.451 113.763 190.386 110.021 193.61 103.382Z" fill="#AFE0F5"/>
<path d="M194.302 98.4064L198.278 92.5837H210.667V93.738C209.829 94.5845 208.082 96.2158 207.794 95.9696C207.435 95.6618 208.718 94.3023 208.282 93.738C207.846 93.1737 202.664 97.919 202.203 97.2777C201.741 96.6365 204.024 94.5588 203.485 94.0458C202.946 93.5328 198.765 97.8933 198.098 97.919C197.432 97.9446 197.97 96.1748 197.534 95.9696C197.185 95.8054 195.234 97.5257 194.302 98.4064Z" fill="#65ABDC"/>
<path d="M146.85 171.971C146.932 171.479 147.226 170.261 147.363 169.714C147.363 169.714 148.338 174.228 149.261 173.869C150.185 173.51 149.569 170.176 150.185 170.227C150.8 170.278 151.159 174.998 151.159 174.998C151.159 174.998 153.519 160.736 154.032 161.608C154.545 162.481 154.176 172.71 155.366 172.382C156.556 172.053 159.145 166.055 160.291 163.096L161.009 172.895V174.998C157.35 176.125 155.237 176.387 151.159 174.998H146.85V171.971Z" fill="#64A5D9"/>
<path d="M170.603 103.741C170.603 102.767 163.421 114.771 156.546 128.776C149.672 142.781 149.672 160.172 149.672 160.172C152.111 149.765 153.854 144.472 158.393 137.087C154.867 147.977 154.607 153.975 155.418 164.379C156.534 155.239 157.13 150.048 159.419 143.551C158.426 148.89 158.814 151.998 160.035 157.607C160.035 157.607 161.838 140.672 165.267 130.418C169.989 116.3 186.762 94.61 183.736 97.0723C180.709 99.5347 170.603 116.054 170.603 116.054C170.603 116.054 177.734 102.151 178.195 98.3036C178.657 94.456 166.396 120.055 165.267 120.363C164.139 120.671 170.603 104.716 170.603 103.741Z" fill="#AFE0F5"/>
<path d="M123.508 71.268C121.405 72.1914 117.623 91.8407 120.533 108.615L115.608 120.722C109.964 123.6 106.882 125.966 104.886 132.521L105.963 146.372C106.258 150.345 105.823 151.994 102.988 152.938C102.988 152.938 104.014 120.722 100.423 121.645C96.8319 122.569 96.5241 145.038 96.5241 145.038C94.5971 148.448 93.5739 150.445 93.1383 156.119H89.1368C89.1832 163.041 88.9164 166.491 85.0328 167.61C85.1972 154.635 84.9389 147.801 83.5964 136.728C80.8037 150.543 79.8543 158.478 83.5964 174.279H116.942C116.942 174.279 116.218 141.187 124.739 122.671C130.503 110.147 145.26 93.9428 145.26 93.9428V83.8879C137.804 86.6761 133.74 88.8503 127.086 95.7899C126.925 86.5695 125.612 70.3446 123.508 71.268Z" fill="#82A63C"/>
<path d="M167.421 79.2714V91.0706V93.8408H154.699C154.699 93.8408 145.054 105.743 135.41 129.751C125.765 153.76 126.791 175.716 126.791 175.716H123.098C123.098 175.716 122.174 148.219 128.638 129.751C135.102 111.283 149.877 93.8408 149.877 93.8408V76.5012H167.421V79.2714Z" fill="#918B8B"/>
<path d="M171.628 93.8408V76.5012H188.352V79.2714V91.0706V93.02H175.937C175.937 93.02 165.78 107.282 156.443 128.828C147.106 150.374 148.44 175.716 148.44 175.716H145.259C145.259 175.716 143.823 149.758 151.005 128.828C158.187 107.897 171.628 93.8408 171.628 93.8408Z" fill="#918B8B"/>
<path d="M193.687 93.8408V76.5012H210.924V79.2714V91.0706V93.02H198.509C198.509 93.02 191.122 99.1761 179.938 126.776C168.755 154.375 170.91 175.716 170.91 175.716H167.421C167.421 175.716 164.241 149.451 173.68 126.776C183.119 104.101 193.687 93.8408 193.687 93.8408Z" fill="#918B8B"/>
<path d="M215.746 93.8408V76.5012H232.778V79.2714V91.0706V93.02H219.543C219.543 93.02 207.436 109.128 199.125 131.393C190.814 153.657 192.148 174.998 192.148 174.998H188.352C188.352 174.998 187.736 148.938 193.687 130.88C199.638 112.822 215.746 93.8408 215.746 93.8408Z" fill="#918B8B"/>
<path d="M237.087 93.8408V76.5012H254.324V79.2714V91.0706V93.02H240.165C240.165 93.02 228.161 108.973 219.543 131.393C210.924 153.812 212.36 173.357 212.36 173.357H210.924C210.924 173.357 208.154 153.452 215.746 130.88C223.339 108.308 237.087 93.8408 237.087 93.8408Z" fill="#918B8B"/>
<rect x="153.878" y="79.271" width="13.3894" height="12.0043" fill="#CFD0D2"/>
<rect x="175.299" y="79.271" width="12.8992" height="12.0043" fill="#CFD0D2"/>
<rect x="197.461" y="79.271" width="13.207" height="12.0043" fill="#CFD0D2"/>
<rect x="219.109" y="79.271" width="13.5148" height="12.0043" fill="#CFD0D2"/>
<rect x="239.308" y="79.271" width="15.0168" height="12.0043" fill="#CFD0D2"/>
<path d="M151.877 97.8926L154.647 93.8911H167.319V94.4041L164.6 97.1743C164.6 97.1743 165.369 94.7632 165.061 94.4041C164.754 94.045 160.444 97.8926 159.47 97.8926C158.495 97.8926 161.009 94.9171 160.444 94.4041C159.88 93.8911 156.443 98.303 155.314 98.1491C154.186 97.9952 154.647 96.5074 154.237 96.4048C153.827 96.3022 151.877 97.8926 151.877 97.8926Z" fill="#65ABDC"/>
<path d="M138.129 125.134C144.696 110.359 150.493 103.639 150.493 103.639C147.122 110.932 146.082 114.533 144.901 120.568C144.901 120.568 158.188 96.5594 158.649 98.2009C159.111 99.8424 150.493 115.438 150.493 115.438L151.467 114.72C144.197 126.902 141.476 135.876 139.104 155.811C139.104 155.811 139.668 144.371 139.104 143.243C138.54 142.114 136.385 160.429 134.846 163.609C133.307 166.79 138.745 136.471 138.129 136.42C137.514 136.368 135.256 144.884 135.256 144.884V142.627C135.256 141.909 128.895 160.121 128.895 160.121C128.895 160.121 131.563 139.908 138.129 125.134Z" fill="#AFE0F5"/>
<path d="M276.897 80.1944C277.149 79.318 284.719 76.0964 288.799 76.9111C292.699 91.8259 292.795 100.442 288.799 116.31C288.799 116.31 282.027 120.927 282.027 122.671C282.027 124.415 285.105 128.212 285.31 132.521C285.516 136.83 282.74 141.933 282.027 148.116C281.146 155.759 283.566 162.173 282.027 167.816C280.488 173.459 269.437 190.48 259.66 203.931H200.357C203.435 192.44 222.621 183.001 245.501 180.333C232.676 167.816 235.549 152.426 252.273 144.423C247.799 132.497 249.366 126.949 262.123 119.183C257.864 106.41 258.35 99.9179 265.201 87.7868V76.9111C265.201 76.9111 267.047 51.0557 271.562 53.1077C276.076 55.1597 276.632 81.1143 276.897 80.1944Z" fill="#82A63C"/>
<path d="M289.004 203.931H259.968C259.968 203.931 280.077 171.715 280.59 166.379C281.103 161.044 279.754 155.77 280.59 148.322C281.245 142.487 284.809 138.779 284.284 132.931C283.908 128.741 280.59 123.492 280.59 121.851C280.59 120.209 289.004 115.489 289.004 115.489C292.073 138.844 291.401 160.208 289.004 203.931Z" fill="#709136"/>
<path d="M253.812 43.976C249.913 44.0786 248.271 70.0367 248.271 70.0367H259.455C259.455 70.0367 257.711 43.8734 253.812 43.976Z" fill="#82A63C"/>
<path d="M234.626 51.8763C232.368 52.1841 231.753 70.0367 231.753 70.0367H237.704C237.704 70.0367 236.883 51.5685 234.626 51.8763Z" fill="#82A63C"/>
<path d="M210.309 38.2304C205.692 39.7693 205.076 69.5442 205.076 70.0367H216.465C216.465 70.0367 214.926 36.6914 210.309 38.2304Z" fill="#82A63C"/>
<path d="M193.277 49.6191C190.61 49.619 190.302 70.0367 190.302 70.0367H196.663C196.663 70.0367 195.945 49.6192 193.277 49.6191Z" fill="#82A63C"/>
<path d="M184.146 45.8229C180.35 45.7202 178.708 70.0367 178.708 70.0367H189.071C189.071 70.0367 187.942 45.9255 184.146 45.8229Z" fill="#82A63C"/>
<path d="M158.29 55.7752C156.854 55.9803 155.992 68.3951 155.828 70.0367H160.855C160.855 70.0367 159.727 55.57 158.29 55.7752Z" fill="#82A63C"/>
<path d="M124.637 70.6521L123.713 71.1651C126.731 84.5989 127.809 92.6309 126.689 109.435L129.048 108.204C131.201 77.5618 125.868 71.1651 124.637 70.6521Z" fill="#709136"/>
<path d="M101.552 121.03L100.628 121.645C102.167 123.595 102.783 139.703 102.783 153.144L105.553 151.81C108.016 147.501 104.117 122.466 101.552 121.03Z" fill="#709136"/>
<path d="M89.701 157.401C89.701 145.91 86.1593 129.27 83.8015 121.747C82.9807 137.958 84.3693 147.177 84.8275 167.712C84.8275 167.712 89.701 168.892 89.701 157.401Z" fill="#709136"/>
<rect x="156.751" y="80.7583" width="1.74422" height="9.7471" fill="#616264"/>
<rect x="178.912" y="80.7583" width="1.74422" height="9.7471" fill="#616264"/>
<rect x="200.151" y="80.7583" width="1.74422" height="9.7471" fill="#616264"/>
<rect x="223.236" y="80.7583" width="1.74422" height="9.7471" fill="#616264"/>
<rect x="244.32" y="80.7583" width="1.74422" height="9.7471" fill="#616264"/>
<rect x="160.291" y="80.7583" width="1.74422" height="9.7471" fill="#616264"/>
<rect x="182.452" y="80.7583" width="1.74422" height="9.7471" fill="#616264"/>
<rect x="203.691" y="80.7583" width="1.74422" height="9.7471" fill="#616264"/>
<rect x="226.776" y="80.7583" width="1.74422" height="9.7471" fill="#616264"/>
<rect x="247.861" y="80.7583" width="1.74422" height="9.7471" fill="#616264"/>
<rect x="163.83" y="80.7583" width="1.74422" height="9.7471" fill="#616264"/>
<rect x="185.992" y="80.7583" width="1.74422" height="9.7471" fill="#616264"/>
<rect x="207.23" y="80.7583" width="1.74422" height="9.7471" fill="#616264"/>
<rect x="230.316" y="80.7583" width="1.74422" height="9.7471" fill="#616264"/>
<rect x="251.4" y="80.7583" width="1.74422" height="9.7471" fill="#616264"/>
<path d="M262.84 70.0364H259.454V94.558C259.454 94.558 244.782 108.717 238.421 128.622C232.06 148.526 232.983 165.353 232.983 165.353H227.032V178.178H243.551C232.983 166.379 239.037 152.117 253.811 144.833C248.944 132.586 251.398 127.146 263.25 119.49C258.478 104.859 261.113 98.6468 266.944 87.9916V76.3976H262.84V70.0364Z" fill="#918B8B"/>
<path d="M143.721 70.3447H259.25V94.5586C259.25 94.5586 244.68 108.718 238.319 128.827C231.958 148.937 234.942 150.964 232.778 165.148H226.828V178.486H220.877V165.148H226.828C226.828 165.148 224.57 150.168 231.958 128.827C239.345 107.486 254.53 94.5586 254.53 94.5586V76.6034H236.985V93.943C236.985 93.943 223.852 109.128 216.362 128.212C208.872 147.296 210.822 173.459 210.822 173.459H204.666C204.666 173.459 202.716 153.657 208.154 133.752C213.592 113.848 232.778 93.943 232.778 93.943V76.6034H215.541V93.943C215.541 93.943 201.015 112.071 195.534 125.647C188.111 144.032 188.455 175.921 188.455 175.921H182.709C182.709 175.921 179.734 155.606 186.916 133.034C194.098 110.462 210.822 93.943 210.822 93.943V76.6034H193.79V93.943C193.79 93.943 177.784 111.488 171.423 133.034C165.062 154.58 167.524 175.921 167.524 175.921H160.547C160.547 175.921 158.598 152.939 165.062 132.521C171.526 112.103 188.455 94.5586 188.455 94.5586V76.6034H171.423L172.039 93.943C172.039 93.943 156.033 109.025 149.774 132.521C143.515 156.017 145.362 175.921 145.362 175.921H139.206C139.206 175.921 136.949 158.171 142.797 134.881C148.646 111.59 167.319 94.5586 167.319 94.5586V76.6034H149.774V93.943C149.774 93.943 132.332 113.437 127.202 134.881C122.072 156.324 123.098 175.921 123.098 175.921H117.044C117.044 175.921 115.608 148.219 122.072 129.546C128.536 110.872 145.362 93.943 145.362 93.943V76.6034H143.721V70.3447Z" fill="#E9E9EB"/>
<path d="M83.5965 173.917C168.078 173.435 213.086 173.432 289.004 173.917C293.231 184.977 294.15 190.876 289.004 203.93C208.797 210.635 163.802 210.571 83.5965 203.93C79.9617 193.057 78.6949 186.781 83.5965 173.917Z" fill="#64A1CE"/>
<path d="M108.118 176.418C107.004 176.711 106.781 177.25 106.681 178.486L226.93 177.973C229.026 174.701 229.231 173.049 226.93 170.601C225.952 169.397 219.288 169.983 216.978 170.601C216.978 170.601 216.281 168.847 215.439 168.533C214.404 168.146 212.874 169.825 212.874 169.825C212.874 169.825 210.77 170.149 207.743 169.825C204.717 169.502 203.024 170.601 203.024 170.601C201.886 169.618 201.221 169.503 199.946 170.601L198.202 168.533C198.202 168.533 197.894 166.594 196.15 166.464C194.405 166.335 193.687 168.533 193.687 168.533C192.299 169.877 191.098 170.013 188.66 169.825C185.39 169.294 183.968 170.226 181.991 173.574C180.911 172.289 179.813 172.204 177.476 172.54C174.837 170.19 173.481 170.468 171.115 171.635C168.748 172.802 170.704 170.601 169.576 169.825C168.447 169.05 167.277 170.448 165.78 170.601C164.262 170.756 164.035 169.825 161.881 170.601C159.726 171.377 157.811 172.54 157.811 172.54C156.606 173.447 155.838 173.537 154.22 172.54C154.22 172.54 154.494 172.54 153.57 171.635C152.647 170.73 151.261 172.145 149.876 171.635C148.276 171.046 149.876 167.886 146.388 168.533C142.9 169.179 144.844 171.476 143.31 171.635C142.262 171.744 141.786 170.415 140.745 170.601C139.689 170.79 139.537 172.295 138.488 172.54C136.812 172.932 138.949 169.825 134.691 169.825C130.434 169.825 130.382 173.574 130.382 173.574C130.382 173.574 129.588 173.529 128.943 173.574C128.228 173.624 127.304 173.574 127.304 173.574C127.304 173.574 126.586 169.252 120.84 169.252C115.095 169.252 116.326 173.574 116.326 173.574C115.284 172.829 114.7 172.763 113.658 173.574C113.658 173.574 111.604 171.129 110.17 171.635C108.547 172.207 108.118 176.418 108.118 176.418Z" fill="#EEF5FB"/>
<rect x="88.0083" y="180.845" width="67.1011" height="2.15462" rx="1.07731" fill="#B5E9F8"/>
<rect x="46.8135" y="187.156" width="36.7335" height="2.15462" rx="1.07731" fill="#B5E9F8"/>
<rect x="282.386" y="179.769" width="36.7335" height="2.15462" rx="1.07731" fill="#B5E9F8"/>
<rect x="49.8906" y="177.101" width="36.7335" height="2.15462" rx="1.07731" fill="#B5E9F8"/>
<rect x="55.6819" y="197.775" width="36.7335" height="2.15462" rx="1.07731" fill="#B5E9F8"/>
<rect x="97.1399" y="184.539" width="80.8497" height="2.15462" rx="1.07731" fill="#B5E9F8"/>
<rect x="134.692" y="188.233" width="80.9523" height="2.15462" rx="1.07731" fill="#B5E9F8"/>
<rect x="89.9573" y="191.926" width="72.3338" height="2.15462" rx="1.07731" fill="#B5E9F8"/>
<rect x="236.318" y="211.347" width="72.3338" height="2.15462" rx="1.07731" fill="#B5E9F8"/>
<rect x="245.193" y="196.082" width="72.3338" height="2.15462" rx="1.07731" fill="#B5E9F8"/>
<rect x="90.467" y="203.379" width="72.3338" height="2.15462" rx="1.07731" fill="#B5E9F8"/>
<rect x="92.4155" y="223.672" width="56.1231" height="2.15462" rx="1.07731" fill="#B5E9F8"/>
<rect x="178.912" y="232.024" width="56.1231" height="2.15462" rx="1.07731" fill="#B5E9F8"/>
<rect x="226.263" y="223.762" width="56.1231" height="2.15462" rx="1.07731" fill="#B5E9F8"/>
<rect x="205.435" y="181.924" width="56.1231" height="2.15462" rx="1.07731" fill="#B5E9F8"/>
<rect x="75.4202" y="210.475" width="27.857" height="2.15462" rx="1.07731" fill="#B5E9F8"/>
<rect x="112.427" y="195.62" width="81.1575" height="2.15462" rx="1.07731" fill="#B5E9F8"/>
<rect x="179.785" y="203.931" width="81.1575" height="2.15462" rx="1.07731" fill="#B5E9F8"/>
<rect x="147.62" y="215.912" width="81.1575" height="2.15462" rx="1.07731" fill="#B5E9F8"/>
<rect x="231.906" y="188.233" width="81.1575" height="2.15462" rx="1.07731" fill="#B5E9F8"/>
<path d="M174.706 96.6106C174.193 96.6106 172.346 98.5088 172.346 98.5088L175.988 92.917H188.659L187.531 94.4047C187.531 94.4047 185.068 97.3801 184.812 96.6106C184.555 95.8411 185.735 95.0203 185.376 94.4047C185.017 93.7891 180.092 98.5088 179.579 97.9444C179.066 97.3801 180.81 94.969 180.502 94.4047C180.195 93.8404 176.347 98.5088 175.578 98.5088C174.808 98.5088 175.219 96.6106 174.706 96.6106Z" fill="#65ABDC"/>
<path d="M22.8583 41.1239L40.3713 49.3443C40.3713 49.3443 38.4056 21.8238 54.8464 15.033C71.2872 8.24225 71.2872 17.3562 71.2872 17.3562C74.2885 10.7637 76.7486 8.57552 83.7965 9.85059L68.4279 0.0218444C62.0254 -0.123564 58.5794 0.233488 54.8464 8.24225C54.8464 8.24225 46.8046 -1.05041 32.1509 11.4589C17.4972 23.9683 22.8583 41.1239 22.8583 41.1239Z" fill="#F5F5F5"/>
<path d="M399.043 44.7711L381.53 52.9915C381.53 52.9915 383.495 25.471 367.055 18.6802C350.614 11.8895 350.614 21.0034 350.614 21.0034C347.613 14.4109 345.152 12.2227 338.105 13.4978L353.473 3.66906C359.876 3.52365 363.322 3.8807 367.055 11.8895C367.055 11.8895 375.096 2.5968 389.75 15.1061C404.404 27.6155 399.043 44.7711 399.043 44.7711Z" fill="#F5F5F5"/>
<path d="M0.518999 93.6629L10.0152 98.1203C10.0152 98.1203 8.94933 83.1977 17.8642 79.5155C26.779 75.8333 26.779 80.7752 26.779 80.7752C28.4064 77.2005 29.7404 76.014 33.562 76.7054L25.2286 71.3759C21.7569 71.297 19.8883 71.4906 17.8642 75.8333C17.8642 75.8333 13.5036 70.7944 5.55782 77.5775C-2.38796 84.3605 0.518999 93.6629 0.518999 93.6629Z" fill="#F5F5F5"/>
<path d="M394.775 98.9071L385.279 103.364C385.279 103.364 386.345 88.4418 377.43 84.7596C368.515 81.0774 368.515 86.0193 368.515 86.0193C366.888 82.4446 365.554 81.2581 361.732 81.9495L370.065 76.62C373.537 76.5412 375.406 76.7348 377.43 81.0774C377.43 81.0774 381.79 76.0386 389.736 82.8216C397.682 89.6047 394.775 98.9071 394.775 98.9071Z" fill="#F5F5F5"/>
<path d="M86.6559 22.3594L40.1927 49.1651C40.1927 49.1651 38.4058 21.6446 54.8465 15.0325C71.2872 8.42046 71.2873 18.0705 71.2873 18.0705C71.2873 18.0705 73.253 9.67139 80.5799 9.67139C87.9068 9.67139 87.3708 13.0668 87.9068 15.0325C88.4428 16.9983 86.6559 22.3594 86.6559 22.3594Z" fill="#D5D5D5"/>
<path d="M335.245 26.0076L381.708 52.8133C381.708 52.8133 383.495 25.2928 367.055 18.6807C350.614 12.0686 350.614 21.7187 350.614 21.7187C350.614 21.7187 348.648 13.3196 341.321 13.3196C333.994 13.3196 334.53 16.715 333.994 18.6807C333.458 20.6465 335.245 26.0076 335.245 26.0076Z" fill="#D5D5D5"/>
<path d="M35.1127 83.4881L9.91859 98.0231C9.91859 98.0231 8.94963 83.1005 17.8644 79.5152C26.7792 75.9299 26.7793 81.1625 26.7793 81.1625C26.7793 81.1625 27.8452 76.6082 31.8181 76.6082C35.791 76.6082 35.5003 78.4493 35.791 79.5152C36.0816 80.5811 35.1127 83.4881 35.1127 83.4881Z" fill="#D5D5D5"/>
<path d="M360.182 88.7332L385.376 103.268C385.376 103.268 386.345 88.3456 377.43 84.7603C368.515 81.175 368.515 86.4076 368.515 86.4076C368.515 86.4076 367.449 81.8533 363.476 81.8533C359.503 81.8533 359.794 83.6944 359.503 84.7603C359.213 85.8262 360.182 88.7332 360.182 88.7332Z" fill="#D5D5D5"/>
<path d="M325.049 204.458L327.372 195.344C332.676 196.099 335.65 196.141 340.954 195.344L342.741 204.458C342.741 204.458 342.219 207.854 334.699 207.854C324.692 207.854 325.049 204.458 325.049 204.458Z" fill="#FDC6B4"/>
<path d="M41.0239 199.107L42.7286 192.419C46.6205 192.973 48.8031 193.004 52.695 192.419L54.0063 199.107C54.0063 199.107 53.6233 201.599 48.1052 201.599C40.7616 201.599 41.0239 199.107 41.0239 199.107Z" fill="#FDC6B4"/>
<path d="M296.278 174.435L313.969 150.846C322.19 156.744 342.741 157.101 354.357 151.74L371.87 174.435C372.231 179.743 370.716 181.861 367.045 185.158L360.075 179.797L361.862 188.017C342.741 202.671 298.065 195.701 296.278 174.435Z" fill="url(#paint0_linear_81_6832)"/>
<path d="M19.9114 177.076L32.8938 159.766C38.9261 164.093 54.0067 164.355 62.5306 160.421L75.3819 177.076C75.647 180.971 74.5355 182.524 71.8412 184.944L66.7269 181.01L68.0383 187.042C54.0067 197.795 21.2227 192.681 19.9114 177.076Z" fill="url(#paint1_linear_81_6832)"/>
<path d="M321.832 123.862C329.338 113.319 334.52 93.8398 334.52 93.8398C334.52 93.8398 340.325 112.922 346.672 123.862C351.212 131.686 360.254 142.626 360.254 142.626C360.254 142.626 361.862 154.957 335.057 155.493C308.251 156.029 308.251 141.911 308.251 141.911C308.251 141.911 314.327 134.406 321.832 123.862Z" fill="url(#paint2_linear_81_6832)"/>
<path d="M38.6631 139.965C44.1708 132.228 47.9738 117.934 47.9738 117.934C47.9738 117.934 52.2329 131.937 56.891 139.965C60.2224 145.707 66.8573 153.734 66.8573 153.734C66.8573 153.734 68.0376 162.783 48.3672 163.176C28.6968 163.57 28.6968 153.21 28.6968 153.21C28.6968 153.21 33.1554 147.702 38.6631 139.965Z" fill="url(#paint3_linear_81_6832)"/>
<defs>
<linearGradient id="paint0_linear_81_6832" x1="334.1" y1="150.846" x2="334.185" y2="212.029" gradientUnits="userSpaceOnUse">
<stop stop-color="#4EB073"/>
<stop offset="0.69906" stop-color="#78C77F"/>
</linearGradient>
<linearGradient id="paint1_linear_81_6832" x1="47.6657" y1="159.766" x2="47.728" y2="204.662" gradientUnits="userSpaceOnUse">
<stop stop-color="#4EB073"/>
<stop offset="0.69906" stop-color="#78C77F"/>
</linearGradient>
<linearGradient id="paint2_linear_81_6832" x1="334.262" y1="93.8398" x2="334.494" y2="177.812" gradientUnits="userSpaceOnUse">
<stop stop-color="#4EB073"/>
<stop offset="0.69906" stop-color="#78C77F"/>
</linearGradient>
<linearGradient id="paint3_linear_81_6832" x1="47.7838" y1="117.934" x2="47.9546" y2="179.554" gradientUnits="userSpaceOnUse">
<stop stop-color="#4EB073"/>
<stop offset="0.69906" stop-color="#78C77F"/>
</linearGradient>
</defs>
</svg>
