<svg width="1440" height="1024" viewBox="0 0 1440 1024" fill="none" xmlns="http://www.w3.org/2000/svg">
<g clip-path="url(#clip0_81_6790)">
<rect width="1440" height="1024" fill="#3E6B83"/>
<path d="M265.5 523.5C250.682 515.446 222.5 519.5 222.5 519.5C219.016 570.914 223.597 598.154 241 644.5H316L285 617L289 548.5C289 548.5 277.273 529.899 265.5 523.5Z" fill="#87D0F2"/>
<path d="M1340 236L1328 216.5C1337.2 203.825 1343.58 199.968 1355.5 194.5C1362.84 200.912 1366.12 205.562 1370 216.5L1340 236Z" fill="#B4D8F3"/>
<path d="M1382.5 214L1370 190C1387.07 177.793 1396.73 176.817 1414 176.5L1420.5 203L1382.5 214Z" fill="#B4D8F3"/>
<path d="M1432 199C1427.29 190.163 1425.74 184.73 1427.5 173L1440.5 170.5V199H1432Z" fill="#B4D8F3"/>
<path d="M719.5 528.5L710 491C721.815 487.294 727.962 486.161 739 484L748.5 519L719.5 528.5Z" fill="#B4D8F3"/>
<path d="M743.5 590.5L727 554L758.5 546.5L772 575L743.5 590.5Z" fill="#B4D8F3"/>
<path d="M782.5 644C770.174 634.822 765.199 627.75 758.5 613L786.5 597.5L804.5 623L782.5 644Z" fill="#B4D8F3"/>
<path d="M746 357.5L713.5 351.5C705.046 385.19 701.674 405.87 705 455L736.5 450C733.701 411.538 737.159 391.781 746 357.5Z" fill="#87D0F2"/>
<path d="M593 240.5V220C610.239 214.327 615.807 214.554 624.5 216V240.5H593Z" fill="#66B0D7"/>
<path d="M642 243.5L644.5 216C669.116 219.322 677.555 222.075 686.5 228L676.5 251.5L642 243.5Z" fill="#66B0D7"/>
<path d="M695 257L704.5 233C712.542 238.304 718.449 241.883 736.5 251.5L724.5 270.5L695 257Z" fill="#66B0D7"/>
<path d="M540.5 76C534.5 70.5 517.621 31.1292 484 0H598L618.5 38C618.5 38 546.5 81.5 540.5 76Z" fill="#87D0F2"/>
<path d="M455.5 652.5C452.7 655.3 453.333 660.667 454 663C452.5 663.667 449.4 664.6 449 663C448.5 661 451 652.5 452.5 648.5C454 644.5 458 643 463 642C467 641.2 464.667 645 463 647C461.667 647.667 458.3 649.7 455.5 652.5Z" stroke="black"/>
<path d="M325.5 909C305.5 847 359.5 778.5 359.5 778.5C375.307 792.189 364 848 371 861C378 874 417 871 428 861L502 805C440 893 489 985 570 920C583.332 962.501 590.727 986.521 607 1022H364C364 1022 345.5 971 325.5 909Z" fill="#3F3F3F"/>
<path d="M719.126 784C798.061 766.318 916.5 714.5 916.5 714.5L927.5 731.5C927.5 731.5 850.126 797 750.126 854C650.126 911 593.126 914.667 518.126 943C457.126 928 471.126 833 505.126 807C505.126 807 637.105 802.373 719.126 784Z" fill="#9FCDF2"/>
<path d="M221 459V441H196L189 459H221Z" fill="white"/>
<path d="M941 724L927 706L915 715L927 734L941 724Z" fill="white"/>
<path d="M516 374V470C516 470 492 486 498 533C504 580 539.5 614.5 537 631C535.777 639.073 526.415 642.119 516 643.124V712L456 742C456 742 443.145 756.476 441 768C438.674 780.5 447 800 447 800H394L388 768C378.284 735.331 373.779 722.893 388 707L318 546L388 522C397.666 552.537 394.33 578.046 401 614C403.526 507.661 390.362 454.565 367 374C427.742 389.306 460.615 390.84 516 374Z" fill="#F4BA8B"/>
<path d="M180 671C149 550 191.5 456.5 191.5 456.5L221 459C221 459 201 612 256 687C311 762 362 780 362 780C331.124 819.81 320.732 846.226 332 911C332 911 211 792 180 671Z" fill="#9FCDF2"/>
<path d="M379 793L357 778C368.281 803.597 356.913 843.037 357 870C392.271 879.082 419.443 865.866 442 852C464.557 838.134 464 835 484 818C504 801 508 808 508 808C509.894 791.665 513 764 493 770C473 776 428.221 802.442 379 793Z" fill="white"/>
<path d="M454 883C452.18 875.892 452.444 871.132 454 862H461.5C463.128 869.856 463.203 874.473 461.5 883H454Z" fill="#737373"/>
<path d="M464 924.5C457.058 918.806 455.476 914.744 454 907L461.5 901.5C468.22 907.014 471.209 910.623 472 920L464 924.5Z" fill="#737373"/>
<path d="M493 956.5C486.655 953.687 483.351 951.585 479 944.5L483.5 937C490.021 940.176 493.42 942.796 499 949.5L493 956.5Z" fill="#737373"/>
<path d="M519.5 989C514.48 983.051 512.289 979.427 513.5 970.5L521.5 967C526.623 974.076 528.045 978.456 528 987L519.5 989Z" fill="#737373"/>
<path d="M524 1005C523.088 1012.41 523.65 1016.22 528 1022H536C536.909 1013.78 535.924 1009.72 531.5 1003.5L524 1005Z" fill="#737373"/>
<path d="M486.5 415C469.3 421.4 459.667 436 457 442.5L464 451.5C471.5 445.667 488.5 432.8 496.5 428C504.5 423.2 521.167 422 528.5 422V406C521.667 406.333 503.7 408.6 486.5 415Z" fill="#6C401D"/>
<path d="M466.5 496.5C444.3 501.424 422.667 511 412 517C428 514.333 442 510 473.5 505C505 500 511.667 500.333 524 500C525.044 541.72 524.551 566.186 524 609.5H529.5C534.934 558.542 538.982 529.978 540.5 479H524V492C512.333 492.667 488.489 491.623 466.5 496.5Z" fill="#261C16"/>
<ellipse cx="478.5" cy="544" rx="7.5" ry="10" fill="#553016"/>
<circle cx="450.5" cy="573.5" r="8.5" fill="#E09666"/>
<circle cx="436.5" cy="595.5" r="5.5" fill="#E09666"/>
<circle cx="479.5" cy="582.5" r="13.5" fill="#E09666"/>
<path d="M116.5 299.5L97.5001 313.5C86.8334 283 51.5 242 72.0001 150.5C92.5001 59 138.833 33 169 10L183.5 28.5C183.5 28.5 105.5 81 93.5001 164C81.5 247 116.5 299.5 116.5 299.5Z" fill="#87D0F2"/>
<path d="M486 153.5C466.196 79.464 440.358 61.2363 396 26L407 5.5C462.475 44.4444 489.113 71.6423 511 151L486 153.5Z" fill="#87D0F2"/>
<path d="M553.5 93.0003L626.5 55.5001L636 78L560.5 111L553.5 93.0003Z" fill="#87D0F2"/>
<path d="M568.546 127.5L641.546 90.0001L651.046 112.5L575.546 145.5L568.546 127.5Z" fill="#87D0F2"/>
<path d="M515 178L491.5 181.5C494.893 204.06 494.159 217.58 489 243L512 248C517.104 220.024 517.825 204.687 515 178Z" fill="#87D0F2"/>
<ellipse cx="849.5" cy="53" rx="23.5" ry="24" fill="#66B0D7"/>
<path d="M850 195.5L831 169C831 169 889.5 102 1041.5 100C1193.5 98 1274 208.5 1274 208.5L1252.5 225.5C1252.5 225.5 1174.5 134 1041.5 132C908.5 130 850 195.5 850 195.5Z" fill="#87D0F2"/>
<path d="M1334.32 406.359C1337.14 403.096 1325.47 344.719 1311.5 315L1338.5 300C1357.99 336.465 1365.68 358.797 1366 406.5C1358.26 406.359 1338.2 406.177 1334.32 406.359C1334.23 406.466 1334.12 406.513 1334 406.5C1333.44 406.439 1333.61 406.393 1334.32 406.359Z" fill="#87D0F2"/>
<path d="M1366 500C1368.98 489.376 1369.77 482.978 1369 470.5C1388.29 472.291 1397.78 475.134 1413 482.5L1399.5 509L1366 500Z" fill="#B4D8F3"/>
<path d="M1416 515.5C1419.64 501.988 1422.33 496.991 1427.5 489.5L1441 495.5V532.5C1429.54 528.031 1424.08 524.39 1416 515.5Z" fill="#B4D8F3"/>
<path d="M1205.5 678C1291 617.5 1310 549.5 1310 549.5L1341.5 561C1341.5 561 1320 637.5 1222 706C1124 774.5 1023 763 1023 763V729C1023 729 1120 738.5 1205.5 678Z" fill="#87D0F2"/>
<path d="M147.5 494.5C70.5199 459.203 43.1664 422.203 -0.5 356.5V543.5C52.702 584.466 84.3668 605.892 160.5 627.5C162.612 576.784 164.171 549.569 167.5 503L147.5 494.5Z" fill="#87D0F2"/>
<path d="M152.5 666.5C141.101 586.443 188 462.5 188 462.5C188 462.5 172.076 607.214 202.5 691.5C235.504 782.933 322.275 797.115 354 889C371.297 939.098 375.5 1023 375.5 1023H289C289 1023 283.81 957.316 270 918C255.431 876.522 215.5 819.5 215.5 819.5C215.5 819.5 161.609 730.472 152.5 666.5Z" fill="#0D6383"/>
<path d="M1165 838.6C998 880.138 947 1024 947 1024H1440V863.928C1440 863.928 1332 797.062 1165 838.6Z" fill="#87D0F2"/>
<path d="M143 898.22C93 832.287 0 812 0 812V1024H204C204 1024 193 964.153 143 898.22Z" fill="#0B5066"/>

<path d="M514 279C503.6 275 471 299.333 456 312L476 287L465 270C429.301 275.707 411.395 281.616 391 307L406 318C406 318 360.694 305.167 337 318C304.083 335.828 304 408 304 408C304 408 250 429 256 477C262 525 316 556 316 556C316 556 305.343 554.039 299 556C278.479 562.343 288.427 592.304 299 611C310.865 631.98 354 639 354 639L343 644C361.506 661.984 365.127 679.846 367 717L360 704C349.329 713.536 344.887 720.612 343 740C341.113 759.388 385 759 385 759L380 733L390 697C378.462 616.579 365.747 585.578 337 544L380 525C391.2 518.6 395.333 579.667 396 611H406C406 611 423 430 418 418C413 406 396 386 396 386C436.363 397.346 479 393.5 499 392C519 390.5 519 381 519 381V400C531.667 392.333 558.6 372.6 565 355C573 333 527 284 514 279Z" fill="#6B3F1C"/>
<path d="M950.5 693.5C943.142 701.196 938.028 703.791 927.5 706L941.5 724C952.205 714.411 958.971 710.96 971.5 706C988.333 706.5 1025.3 707.2 1038.5 706C1055 704.5 1126.5 685.5 1128 682C1129.5 678.5 1126.5 670 1122 668.5C1117.5 667 1082 679.5 1065.5 684C1052.3 687.6 1028.67 685.5 1018.5 684C1019.67 680.333 1019.9 671.5 1011.5 665.5C1003.1 659.5 969 668 953 673L950.5 693.5Z" fill="#F4BA89"/>
<path d="M247 400C220.5 412.5 230.544 424.988 220 441H196.5C198.166 424 214.5 394 190.5 372C166.5 350 151.5 345 151.5 341C151.5 338.458 153.317 335.916 154.642 334.4C153.687 334.969 152.421 334.845 151.5 331.5C149.822 325.408 150.51 322.493 154 318C154 318 150 318 150 313C150 308 151.318 300.363 156 298C156 298 146.151 292.595 150 285C153.849 277.405 156 274.5 163 274C170 273.5 226.5 376.5 247 377C267.5 377.5 270.924 348.338 290 352C299.8 353.881 312 365 312 365V394C312 394 273.5 387.5 247 400Z" fill="#F4BA89"/>
<path d="M399 689L396 610H405C414 633.333 437 683.7 457 698.5C477 713.3 505.667 712.333 517.5 710L521.5 745.5C502.5 745.833 459.3 743.4 438.5 731C417.7 718.6 403.5 697.833 399 689Z" fill="#6B3F1C"/>
<path d="M490 673C479.5 673 462 657.5 462 657.5C462 657.5 475.5 676.5 488.5 678C501.5 679.5 516 679.5 516 679.5V673H490Z" fill="#D07F54"/>
</g>
<defs>
<clipPath id="clip0_81_6790">
<rect width="1440" height="1024" fill="white"/>
</clipPath>
</defs>
</svg>
