<svg width="280" height="244" viewBox="0 0 280 244" fill="none" xmlns="http://www.w3.org/2000/svg">
<path d="M122.492 111.467V110.885H125.502V111.467H122.492Z" stroke="black" stroke-width="0.19415"/>
<path d="M136.472 81.5679L41.0469 142.24C62.8888 156.413 107.155 184.778 109.485 184.856C112.397 184.953 114.533 181.943 117.93 181.846C121.328 181.749 150.839 201.164 155.887 201.747C160.935 202.329 254.321 146.511 255.971 143.696C257.621 140.881 221.218 122.534 218.888 122.436C216.559 122.339 213.84 124.863 211.219 125.155C209.123 125.388 207.434 124.346 206.851 123.796L136.472 81.5679Z" fill="#179B6F"/>
<path d="M118.318 102.051L112.105 98.2651L112.396 97.6826L118.706 101.469L118.318 102.051Z" stroke="black" stroke-width="0.19415"/>
<path d="M129.967 102.051L136.18 98.2651L135.889 97.6826L129.579 101.469L129.967 102.051Z" stroke="black" stroke-width="0.19415"/>
<path d="M135.015 111.758L128.802 107.972L129.093 107.39L135.403 111.176L135.015 111.758Z" stroke="black" stroke-width="0.19415"/>
<path d="M119.457 107.012L112.921 111.217L113.248 111.831L119.887 107.624L119.457 107.012Z" stroke="black" stroke-width="0.19415"/>
<path d="M191.707 181.846H162.391V179.322H173.457L167.924 177.283L171.03 173.594H206.269L191.707 181.846Z" fill="url(#paint0_linear_81_6923)"/>
<path d="M155.886 129.426C155.207 129.426 150.256 132.436 149.868 132.921C149.479 133.406 154.721 141.366 155.207 141.366C155.692 141.366 161.031 138.066 161.088 137.806C161.144 137.546 156.566 129.426 155.886 129.426Z" fill="#1B6DF6" stroke="white" stroke-width="0.97075"/>
<path d="M170.545 177.963C170.836 177.478 170.545 176.507 170.545 176.507L167.438 172.624C167.438 172.624 165.383 172.756 164.526 173.595C163.968 174.141 163.555 175.342 163.555 175.342L168.603 178.643C168.603 178.643 170.253 178.449 170.545 177.963Z" fill="#565658"/>
<path d="M154.915 178.546C156.038 177.643 158.604 178.546 158.604 178.546L162.973 180.099L162.973 180.106C162.986 180.767 162.993 181.14 162.099 181.846H154.042C154.042 181.846 153.729 180.484 154.042 179.711C154.255 179.184 154.472 178.902 154.915 178.546Z" fill="#565658"/>
<path d="M171.127 142.628C171.322 142.143 171.127 137.871 171.127 137.871C169.875 140.275 169.088 141.622 169.477 143.987C169.477 143.987 170.933 143.113 171.127 142.628Z" fill="#FAB0B2"/>
<path d="M160.837 129.62V124.767H166.468L166.662 129.523L167.438 130.882C167.374 131.4 166.856 132.63 165.303 133.018C163.749 133.406 162.358 132.921 161.905 132.63L163.264 130.397L160.837 129.62Z" fill="#FAB0B2"/>
<path d="M161.808 126.902V125.446L163.847 126.319L168.701 126.125C168.701 126.125 167.804 129.222 166.856 129.426C165.908 129.63 165.377 129.689 164.429 129.426C164.429 129.426 163.361 127.29 162.876 127.387C162.391 127.484 162.099 127.97 162.099 128.552C162.099 129.134 164.119 129.553 163.556 130.202C163.179 130.635 162.659 130.523 162.099 130.396C161.071 130.165 160.229 129.291 160.449 128.261C160.606 127.527 161.808 126.902 161.808 126.902Z" fill="#454958"/>
<path d="M72.4989 135.735C72.033 138.531 77.9351 139.165 80.9445 139.133C83.9538 139.1 87.4485 137.58 87.4485 137.58C87.9663 137.806 89.0988 138.24 89.4871 138.162C89.8754 138.084 94.5026 135.929 96.7677 134.862C94.4379 134.117 89.623 132.629 89.0017 132.629C88.3804 132.629 87.4485 133.017 87.0602 133.211C85.4423 132.726 81.6434 131.774 79.3913 131.852C76.5761 131.949 73.0814 132.24 72.4989 135.735Z" fill="#128861"/>
<path d="M76.2849 136.415L76.7703 133.794H79.5855L80.1679 136.415C80.1679 136.415 79.5855 136.609 78.4206 136.609C77.2557 136.609 76.2849 136.415 76.2849 136.415Z" fill="#FDC6B4"/>
<path d="M70.4602 130.009L74.052 124.767C77.4806 126.234 79.2348 126.044 82.2063 124.767L85.9922 130.009C85.9922 130.009 85.7981 133.795 78.2262 133.795C70.6544 133.795 70.4602 130.009 70.4602 130.009Z" fill="url(#paint1_linear_81_6923)"/>
<path d="M75.6051 119.039C76.7936 116.901 77.6437 113.117 77.6437 113.117C77.6437 113.117 78.8991 116.911 80.2647 119.039C81.3263 120.694 83.4682 122.922 83.4682 122.922C83.4682 122.922 82.9975 125.827 78.1291 125.737C72.887 125.64 72.6929 122.922 72.6929 122.922C72.6929 122.922 74.684 120.696 75.6051 119.039Z" fill="url(#paint2_linear_81_6923)"/>
<path d="M18.9133 183.4V178.837C25.6518 183.661 29.5144 186.294 37.5517 190.001C37.5517 190.001 38.9067 190.344 39.7845 190.292C40.6014 190.244 41.823 189.807 41.823 189.807C49.4116 185.818 53.4261 183.464 59.6849 178.837V183.4L41.823 193.981C41.823 193.981 40.612 194.536 39.7845 194.564C38.8471 194.595 37.4547 193.981 37.4547 193.981L18.9133 183.4Z" fill="#DEDFDF"/>
<path d="M19.0104 176.895C18.5272 177.204 18.7686 177.779 18.8162 178.351C19.0104 180.681 35.319 189.126 36.9693 189.806C37.9913 190.227 38.6808 190.156 39.7845 190.097C40.5126 190.058 41.6289 189.806 41.6289 189.806L59.1995 179.71C59.1995 179.71 59.7908 178.543 59.6848 177.769C59.5521 176.799 58.2287 175.73 58.2287 175.73L39.3962 163.402C39.3962 163.402 21.4373 175.342 19.0104 176.895Z" fill="#11845E"/>
<path opacity="0.82" d="M102.447 162.153C107.262 161.532 111.507 164.419 113.028 165.939L124.289 164.192C125.648 164.58 128.58 165.279 129.434 164.969C130.288 164.658 132.443 165.486 133.414 165.939L205.929 124.003C206.803 124.391 209.113 125.226 211.365 125.459C214.18 125.75 216.51 122.547 218.257 122.353C219.655 122.197 222.076 123.388 223.111 124.003L120.697 183.219L118.076 182.345C116.812 181.608 115.767 181.756 113.708 182.345C113.708 182.345 110.221 184.879 107.689 184.772C105.88 184.695 103.321 183.219 103.321 183.219L125.162 170.89L119.435 171.667C118.4 172.023 116.134 172.793 115.358 173.026C114.581 173.259 113.481 172.217 113.028 171.667C110.795 172.54 105.379 174.366 101.573 174.676C96.8165 175.064 91.2833 172.735 90.6037 168.366C89.9242 163.998 96.4282 162.93 102.447 162.153Z" fill="#11845E"/>
<path d="M86.3804 159.033L91.9136 150.393C98.5694 151.908 101.721 151.459 106.572 148.937L113.95 157.48C113.95 157.48 112.92 164.975 101.136 165.44C86.3804 166.022 86.3804 159.033 86.3804 159.033Z" fill="url(#paint3_linear_81_6923)"/>
<path d="M157.739 160.975C157.672 158.017 157.925 153.306 157.925 153.306C157.925 153.306 160.234 154.848 161.808 154.665C162.356 154.601 163.175 154.471 163.175 154.471L169.679 151.462C169.679 151.462 169.517 154.3 169.485 156.121C169.43 159.268 169.007 161.104 169.679 164.179C169.958 165.456 170.372 166.105 170.65 167.382C171.392 170.79 170.65 176.313 170.65 176.313C170.65 176.313 169.585 177.026 168.806 177.089C167.605 177.187 165.99 175.828 165.99 175.828L165.311 165.829L164.631 159.228C164.631 159.228 162.55 163.556 162.593 166.508C162.61 167.693 162.865 168.338 162.981 169.518C163.384 173.63 162.884 180.099 162.884 180.099C162.884 180.099 161.697 180.873 160.845 180.875C159.794 180.879 158.419 179.711 158.419 179.711C158.419 179.711 158.631 173.079 158.419 168.838C158.265 165.76 157.809 164.056 157.739 160.975Z" fill="#DFDFDF"/>
<path d="M117.348 167.868L117.639 165.441L120.745 165.344L121.231 167.868C121.231 167.868 120.745 168.139 119.386 168.159C118.124 168.177 117.348 167.868 117.348 167.868Z" fill="#FDC6B4"/>
<path d="M97.1558 168.936L98.1265 165.538C100.068 165.597 101.104 165.575 102.786 165.344L103.66 168.936C103.66 168.936 102.98 170.003 100.553 170.003C98.1265 170.003 97.1558 168.936 97.1558 168.936Z" fill="#FDC6B4"/>
<path d="M109.873 159.811L114.338 156.219C118.106 157.381 120.004 157.155 123.075 155.442L127.346 160.296C127.346 160.296 128.123 164.859 119.677 165.344C110.179 165.89 109.873 159.811 109.873 159.811Z" fill="url(#paint4_linear_81_6923)"/>
<path d="M115.212 149.423C116.19 147.167 117.348 143.501 117.348 143.501C117.348 143.501 118.856 146.765 120.163 148.646C121.512 150.588 124.143 153.209 124.143 153.209C124.143 153.209 124.399 156.079 119.483 156.703C113.368 157.48 112.785 154.277 112.785 154.277C112.785 154.277 114.369 151.367 115.212 149.423Z" fill="url(#paint5_linear_81_6923)"/>
<path d="M93.6615 139.716C95.2159 136.797 96.865 128.844 96.865 128.844C96.865 128.844 99.6546 134.888 102.204 138.26C104.275 140.999 108.223 144.667 108.223 144.667C108.223 144.667 108.955 150.25 100.263 151.074C89.0019 152.142 89.6815 147.191 89.6815 147.191L93.6615 139.716Z" fill="url(#paint6_linear_81_6923)"/>
<path d="M158.702 136.027L161.905 132.532C164.762 133.447 166.076 133.311 167.438 130.882C167.438 130.882 170.448 130.785 171.224 133.212C172.001 135.639 171.637 135.639 171.516 136.318C171.394 136.998 170.391 139.513 169.671 141.56C168.951 143.607 169.671 150.491 169.671 150.491C169.671 150.491 166.856 153.306 162.682 153.695C158.507 154.083 157.925 152.238 157.925 152.238V145.249L162.293 145.055C162.293 145.055 162.876 139.716 162.876 138.939C162.876 138.162 162.57 137.079 161.711 136.415C160.773 135.691 158.702 136.027 158.702 136.027Z" fill="#FC6E2E"/>
<path d="M34.1544 179.225L35.4164 174.274C38.2974 174.685 39.9131 174.707 42.7941 174.274L43.7649 179.225C43.7649 179.225 43.4813 181.07 39.3965 181.07C33.9603 181.07 34.1544 179.225 34.1544 179.225Z" fill="#FDC6B4"/>
<path d="M18.5251 162.917L28.1356 150.103C32.601 153.306 43.7647 153.5 50.0745 150.588L59.5879 162.917C59.7841 165.8 58.9613 166.95 56.9669 168.741L53.1809 165.829L54.1517 170.294C43.7647 178.255 19.4959 174.469 18.5251 162.917Z" fill="url(#paint7_linear_81_6923)"/>
<path d="M61.1411 78.4617L70.3632 83.7038C70.3632 83.7038 69.3925 77.2969 71.8194 74.7729C74.2462 72.2489 74.7316 71.4723 76.7702 70.9869C78.8088 70.5016 80.2649 72.9284 80.2649 72.9284C80.9376 72.3055 81.4205 72.1339 82.5947 72.346L74.1492 67.201C74.1492 67.201 73.3414 67.1894 72.8872 67.3952C72.4935 67.5735 72.0135 68.0747 72.0135 68.0747C72.0135 68.0747 70.1691 66.0362 69.1983 65.939C68.2276 65.8419 66.9211 66.5563 65.7036 67.3952C64.3555 68.324 63.7599 69.1156 62.8885 70.5016C61.1944 73.1959 61.1411 78.4617 61.1411 78.4617Z" fill="#F5F5F5"/>
<path d="M195.008 156.606L204.812 162.14L204.715 145.54L195.008 139.618V156.606Z" fill="#E6E6E6"/>
<path d="M204.715 145.152V162.043L211.025 158.742V133.018L208.307 134.571L204.715 145.152Z" fill="#979595"/>
<path d="M212.869 92.8289L221.703 95.644" stroke="#565658" stroke-width="0.58245"/>
<path d="M240.244 92.2466L230.149 96.0325" stroke="#565658" stroke-width="0.58245"/>
<path d="M221.412 105.059V89.5643L231.314 89.333V104.48C227.622 109.034 223.175 106.764 221.412 105.059Z" fill="#D5D5D5"/>
<path d="M226.363 81.5679V89.8192" stroke="#565658" stroke-width="0.58245"/>
<path d="M232.382 77.4909L231.314 80.5973L238.4 76.6172V74.0933L232.382 77.4909Z" fill="#179B6F"/>
<path d="M214.617 90.7906L238.497 76.8118" stroke="#565658" stroke-width="0.58245"/>
<path d="M86.9633 53.3191L96.4766 57.7846C96.4766 57.7846 95.4088 42.835 104.34 39.1462C113.271 35.4573 113.271 40.4081 113.271 40.4081C114.901 36.827 116.237 35.6383 120.066 36.331L111.717 30.9918C108.239 30.9129 106.368 31.1068 104.34 35.4573C104.34 35.4573 99.9713 30.4094 92.0112 37.2046C84.0511 43.9999 86.9633 53.3191 86.9633 53.3191Z" fill="#F5F5F5"/>
<path d="M121.619 43.126L96.3793 57.6872C96.3793 57.6872 95.4086 42.7377 104.339 39.1459C113.27 35.5541 113.27 40.7962 113.27 40.7962C113.27 40.7962 114.338 36.2336 118.318 36.2336C122.298 36.2336 122.007 38.0781 122.298 39.1459C122.59 40.2137 121.619 43.126 121.619 43.126Z" fill="#D5D5D5"/>
<path d="M130.258 59.823V98.9442L138.607 94.9642L133.947 77.879L141.616 76.7141L147.149 72.5398V98.9442L161.322 91.0812L171.806 94.9642L155.595 104.186V114.573L147.149 119.039L130.258 98.9442L122.007 113.7H88.4189L104.825 96.9057L130.258 98.9442L117.833 92.0519L130.258 59.823Z" fill="#F5F5F5"/>
<path d="M181.806 67.2413L190.154 71.8609L197.726 63.3917C196.311 62.4614 192.593 60.1387 189.042 58.2908C186.144 56.7827 183.777 59.7452 182.498 62.3331C182.21 62.9159 181.977 63.4797 181.806 63.9691V67.2413Z" fill="#F5F5F5"/>
<path d="M190.154 69.106V71.8605L198.6 67.0068V64.5799C196.173 59.7262 191.125 65.8055 190.154 69.106Z" fill="#D5D5D5"/>
<path d="M218.985 88.072L214.229 90.693V82.927L218.985 80.4031V88.072Z" fill="#179B6F"/>
<circle cx="226.265" cy="80.0144" r="1.5532" fill="#FC6F2E"/>
<path d="M239.274 91.7607V89.7222H248.01V91.7607C245.137 95.0225 240.536 93.3139 239.274 91.7607Z" fill="#BFBFBF"/>
<path d="M223.159 109.421V107.39L232.09 107.196V109.421C229.153 112.67 224.449 110.968 223.159 109.421Z" fill="#BFBFBF"/>
<path d="M221.412 143.009V140.978L231.12 140.784V143.009C227.927 146.258 222.814 144.556 221.412 143.009Z" fill="#BFBFBF"/>
<path d="M204.715 92.7313V90.6927L213.452 90.4985V92.7313C210.578 95.993 205.977 94.2845 204.715 92.7313Z" fill="#BFBFBF"/>
<path d="M221.412 98.4593V96.9061L221.703 96.9062C224.13 99.4301 228.693 98.9448 230.731 96.906L231.314 96.9061V97.8768C228.887 101.76 222.771 100.207 221.412 98.4593Z" fill="#A8A8A8"/>
<path d="M226.848 98.6531L227.333 104.478" stroke="#565658" stroke-width="0.97075"/>
<ellipse cx="226.363" cy="89.3336" rx="4.95083" ry="2.91225" fill="#EBEBEB"/>
<ellipse cx="226.266" cy="140.881" rx="4.85375" ry="2.81518" fill="#EBEBEB"/>
<ellipse cx="243.642" cy="89.6247" rx="4.36838" ry="2.62103" fill="#EBEBEB"/>
<ellipse cx="209.083" cy="90.4023" rx="4.36838" ry="2.62103" fill="#EBEBEB"/>
<ellipse cx="227.625" cy="107.195" rx="4.46545" ry="2.52395" fill="#EBEBEB"/>
<path d="M226.363 110.885V141.172" stroke="#565658" stroke-width="0.97075"/>
<path d="M226.848 140.784H231.022" stroke="#BFBFBF" stroke-width="0.7766"/>
<path d="M231.12 141.852H251.409" stroke="url(#paint8_linear_81_6923)" stroke-width="1.5532"/>
<path d="M208.792 153.015V151.073L210.345 150.297V152.141L208.792 153.015Z" fill="#565558"/>
<path d="M208.792 155.927V153.985L210.345 153.208V155.053L208.792 155.927Z" fill="#565558"/>
<path d="M208.792 158.451V156.51L210.345 155.733V157.577L208.792 158.451Z" fill="#565558"/>
<path d="M204.715 145.347L208.307 134.571L198.503 128.844L195.008 139.716L204.715 145.347Z" fill="#E6E6E6"/>
<path d="M200.25 145.152L200.638 145.734" stroke="url(#paint9_linear_81_6923)" stroke-width="0.58245" stroke-linecap="round"/>
<path d="M202.773 146.608L203.162 147.19" stroke="url(#paint10_linear_81_6923)" stroke-width="0.58245" stroke-linecap="round"/>
<path d="M195.687 155.927L195.784 148.646L203.744 153.306V160.49L195.687 155.927Z" fill="#F5F5F5"/>
<path d="M204.521 162.042V145.346L195.008 139.618" stroke="#DBE1DF" stroke-width="0.19415"/>
<path d="M201.803 127.484L211.025 133.017L208.307 134.571L198.793 128.746L200.929 127.484H201.803Z" fill="white"/>
<path d="M207.045 134.668L198.794 129.911L195.59 139.133L204.133 143.987L207.045 135.638V134.668Z" fill="#555658"/>
<path d="M205.434 138.603L203.743 142.964C203.695 143.086 203.543 143.127 203.44 143.046L202.786 142.522C202.721 142.47 202.696 142.381 202.726 142.302L204.34 137.999C204.383 137.883 204.522 137.837 204.626 137.903L205.357 138.369C205.435 138.418 205.467 138.516 205.434 138.603Z" fill="#FD6E2E"/>
<path d="M203.686 138.239L202.186 142.091C202.139 142.213 201.987 142.254 201.885 142.173L201.331 141.732C201.265 141.679 201.241 141.59 201.27 141.511L202.703 137.706C202.746 137.591 202.885 137.545 202.989 137.611L203.609 138.004C203.688 138.054 203.72 138.152 203.686 138.239Z" fill="#FDC662"/>
<path d="M109.485 184.079C106.766 184.545 64.9918 157.125 46.677 146.026L48.4244 151.268C67.4187 162.334 106.999 188.37 109.485 188.447C112.591 188.545 112.494 186.312 116.862 185.535C120.357 184.914 144.076 198.543 155.498 205.436C155.692 204.141 157.129 201.572 156.663 201.65C156.081 201.747 120.163 181.749 118.027 181.749C115.892 181.749 112.882 183.497 109.485 184.079Z" fill="#DFDFDF"/>
<path d="M200.438 141.246L199.806 140.866C199.726 140.818 199.691 140.719 199.724 140.632L200.168 139.448C200.21 139.335 200.346 139.287 200.45 139.35L201.082 139.729C201.162 139.777 201.197 139.876 201.164 139.964L200.72 141.147C200.677 141.261 200.542 141.308 200.438 141.246Z" fill="#65B86A"/>
<path d="M200.579 136.855L199.265 140.185C199.221 140.295 199.089 140.341 198.986 140.281L198.164 139.802C198.08 139.752 198.045 139.648 198.083 139.559L199.481 136.239C199.527 136.128 199.663 136.086 199.764 136.15L200.503 136.62C200.581 136.67 200.613 136.769 200.579 136.855Z" fill="#C1E7F5"/>
<path d="M198.653 136.331L198.022 135.952C197.918 135.89 197.783 135.937 197.741 136.051L196.719 138.775C196.684 138.868 196.725 138.973 196.814 139.017L197.437 139.329C197.54 139.38 197.664 139.332 197.705 139.225L198.734 136.567C198.768 136.479 198.734 136.379 198.653 136.331Z" fill="white"/>
<path d="M117.833 92.0524L130.259 98.9448V60.1147L136.569 72.9287L142.199 76.2292L141.811 76.7146L133.948 77.9766L138.607 94.9647L130.259 98.9448L147.15 119.039L129.87 109.429L122.007 113.7L130.259 98.9448L111.038 97.3916L117.833 92.0524Z" fill="#D5D5D5"/>
<path d="M146.761 99.4301L147.344 72.5404L161.226 91.0817L146.761 99.4301Z" fill="#D5D5D5"/>
<path d="M155.401 114.186V104.09L171.807 94.9647L181.611 109.138L172.875 114.186H155.401Z" fill="#D5D5D5"/>
<path d="M70.363 83.8003L83.9535 75.646C83.9535 75.646 84.2154 74.3189 83.8564 73.6073C83.4395 72.781 82.8373 72.3235 81.9149 72.2482C81.1979 72.1897 80.1675 72.8308 80.1675 72.8308C80.1675 72.8308 79.2833 71.5151 78.4202 71.0834C76.2959 70.0211 72.8869 73.6074 72.8869 73.6074C68.8098 77.4903 70.363 83.8003 70.363 83.8003Z" fill="#D5D5D5"/>
<path d="M32.4068 135.444C36.4839 129.717 39.2991 119.135 39.2991 119.135C39.2991 119.135 42.452 129.501 45.9002 135.444C48.3663 139.694 53.2779 145.637 53.2779 145.637C53.2779 145.637 54.1516 152.335 39.5903 152.626C25.0291 152.918 25.0291 145.249 25.0291 145.249C25.0291 145.249 28.3296 141.172 32.4068 135.444Z" fill="url(#paint11_linear_81_6923)"/>
<path d="M158.702 122.048C159.381 120.106 161.711 120.397 161.711 120.397C161.711 120.397 162.099 118.456 165.788 119.038C169.477 119.621 170.351 124.475 169.962 125.154C169.29 126.33 168.701 126.028 166.662 126.222C164.623 126.416 163.75 126.416 163.75 126.416C163.75 126.416 158.022 123.989 158.702 122.048Z" fill="#FC6E2E"/>
<path d="M154.042 138.842L155.692 141.463C155.312 141.473 155.099 141.546 154.721 142.046C154.721 142.046 152.877 140.881 152.489 140.492C152.1 140.104 152.489 137.871 152.489 137.871L152.974 138.842C152.974 138.842 152.877 136.901 153.265 136.901C153.654 136.901 154.042 138.842 154.042 138.842Z" fill="#FAB0B2"/>
<path d="M118.512 96.7119C118.512 98.9637 115.383 100.789 111.523 100.789C107.663 100.789 104.534 98.9637 104.534 96.7119C104.534 94.4602 107.663 92.6348 111.523 92.6348C115.383 92.6348 118.512 94.4602 118.512 96.7119ZM105.942 96.7119C105.942 98.51 108.441 99.9676 111.523 99.9676C114.605 99.9676 117.104 98.51 117.104 96.7119C117.104 94.9139 114.605 93.4562 111.523 93.4562C108.441 93.4562 105.942 94.9139 105.942 96.7119Z" fill="#565656"/>
<path d="M143.752 96.7119C143.752 98.9637 140.623 100.789 136.763 100.789C132.903 100.789 129.773 98.9637 129.773 96.7119C129.773 94.4602 132.903 92.6348 136.763 92.6348C140.623 92.6348 143.752 94.4602 143.752 96.7119ZM131.182 96.7119C131.182 98.51 133.68 99.9676 136.763 99.9676C139.845 99.9676 142.344 98.51 142.344 96.7119C142.344 94.9139 139.845 93.4562 136.763 93.4562C133.68 93.4562 131.182 94.9139 131.182 96.7119Z" fill="#565656"/>
<path d="M143.752 111.079C143.752 113.33 140.623 115.156 136.763 115.156C132.903 115.156 129.773 113.33 129.773 111.079C129.773 108.827 132.903 107.001 136.763 107.001C140.623 107.001 143.752 108.827 143.752 111.079ZM131.182 111.079C131.182 112.877 133.68 114.334 136.763 114.334C139.845 114.334 142.344 112.877 142.344 111.079C142.344 109.281 139.845 107.823 136.763 107.823C133.68 107.823 131.182 109.281 131.182 111.079Z" fill="#565656"/>
<path d="M118.512 111.079C118.512 113.33 115.383 115.156 111.523 115.156C107.663 115.156 104.534 113.33 104.534 111.079C104.534 108.827 107.663 107.001 111.523 107.001C115.383 107.001 118.512 108.827 118.512 111.079ZM105.942 111.079C105.942 112.877 108.441 114.334 111.523 114.334C114.605 114.334 117.104 112.877 117.104 111.079C117.104 109.281 114.605 107.823 111.523 107.823C108.441 107.823 105.942 109.281 105.942 111.079Z" fill="#565656"/>
<ellipse cx="111.523" cy="97.5856" rx="1.35905" ry="0.873675" fill="#565656"/>
<ellipse cx="136.762" cy="97.5856" rx="1.35905" ry="0.873675" fill="#565656"/>
<ellipse cx="136.762" cy="111.758" rx="1.35905" ry="0.873675" fill="#565656"/>
<ellipse cx="111.523" cy="111.758" rx="1.35905" ry="0.873675" fill="#565656"/>
<path d="M120.163 100.595L118.221 101.857C118.674 102.407 119.6 103.721 119.677 104.575C119.755 105.43 118.545 106.29 117.93 106.614L120.163 107.585C121.166 107.261 123.483 106.614 124.725 106.614C125.968 106.614 127.508 107.261 128.123 107.585L129.87 106.128C129.417 105.74 128.492 104.789 128.414 104.09C128.336 103.391 129.352 102.116 129.87 101.566L128.123 100.595C127.12 100.886 124.861 101.488 123.852 101.566C122.842 101.644 120.972 100.951 120.163 100.595Z" fill="#FC6F2E"/>
<path d="M120.842 108.166L122.104 110.302H125.987L127.152 108.166C126.699 107.972 125.463 107.565 124.143 107.487C122.822 107.409 121.392 107.908 120.842 108.166Z" fill="#565658"/>
<path d="M122.881 117.485L127.637 114.282V120.009L122.881 117.485Z" fill="#F5F5F5"/>
<path d="M127.638 120.01V114.186L133.462 116.851L127.638 120.01Z" fill="#D5D5D5"/>
<g opacity="0.67">
<path d="M119.289 126.416C119.289 128.453 116.551 130.105 113.173 130.105C109.795 130.105 107.057 128.453 107.057 126.416C107.057 124.378 109.795 122.727 113.173 122.727C116.551 122.727 119.289 124.378 119.289 126.416ZM107.85 126.416C107.85 128.189 110.233 129.626 113.173 129.626C116.113 129.626 118.496 128.189 118.496 126.416C118.496 124.643 116.113 123.205 113.173 123.205C110.233 123.205 107.85 124.643 107.85 126.416Z" fill="#0E7755"/>
<path d="M141.034 126.416C141.034 128.453 138.296 130.105 134.918 130.105C131.54 130.105 128.802 128.453 128.802 126.416C128.802 124.378 131.54 122.727 134.918 122.727C138.296 122.727 141.034 124.378 141.034 126.416ZM129.595 126.416C129.595 128.189 131.978 129.626 134.918 129.626C137.858 129.626 140.241 128.189 140.241 126.416C140.241 124.643 137.858 123.205 134.918 123.205C131.978 123.205 129.595 124.643 129.595 126.416Z" fill="#0E7755"/>
<path d="M119.095 139.036C119.095 141.073 116.357 142.724 112.979 142.724C109.601 142.724 106.863 141.073 106.863 139.036C106.863 136.998 109.601 135.347 112.979 135.347C116.357 135.347 119.095 136.998 119.095 139.036ZM107.656 139.036C107.656 140.809 110.039 142.246 112.979 142.246C115.919 142.246 118.302 140.809 118.302 139.036C118.302 137.262 115.919 135.825 112.979 135.825C110.039 135.825 107.656 137.262 107.656 139.036Z" fill="#0E7755"/>
<path d="M141.034 139.036C141.034 141.073 138.296 142.724 134.918 142.724C131.54 142.724 128.802 141.073 128.802 139.036C128.802 136.998 131.54 135.347 134.918 135.347C138.296 135.347 141.034 136.998 141.034 139.036ZM129.595 139.036C129.595 140.809 131.978 142.246 134.918 142.246C137.858 142.246 140.241 140.809 140.241 139.036C140.241 137.262 137.858 135.825 134.918 135.825C131.978 135.825 129.595 137.262 129.595 139.036Z" fill="#0E7755"/>
<ellipse cx="113.27" cy="139.327" rx="0.970751" ry="0.679525" fill="#0E7755"/>
<ellipse cx="113.27" cy="126.319" rx="0.970751" ry="0.679525" fill="#0E7755"/>
<ellipse cx="134.821" cy="126.901" rx="0.970751" ry="0.679525" fill="#0E7755"/>
<ellipse cx="134.821" cy="139.327" rx="0.970751" ry="0.679525" fill="#0E7755"/>
<path d="M119.192 130.492L113.562 126.901L113.95 126.318L120.114 130.25L121.036 130.007C121.554 130.104 122.997 130.337 124.628 130.492C126.259 130.648 126.99 130.233 127.152 130.007H128.22L133.753 126.901L134.336 127.386L128.899 130.492L129.094 131.075C128.673 131.528 127.851 132.628 127.929 133.405C128.006 134.181 128.738 134.634 129.094 134.764L128.899 135.346L134.627 138.841L134.044 139.132L128.22 135.637L127.152 135.831C126.44 135.605 124.706 135.152 123.463 135.152C122.221 135.152 120.551 135.605 119.871 135.831C118.092 136.899 114.474 139.054 114.241 139.132C114.008 139.21 113.95 138.776 113.95 138.55L119.192 135.346L118.901 134.861C119.289 134.472 120.085 133.521 120.163 132.822C120.24 132.123 119.548 130.978 119.192 130.492Z" fill="#0E7755"/>
</g>
<path d="M164.526 201.941C162.164 203.041 157.051 205.261 155.498 205.339V201.941C197.32 180.517 219.188 167.705 255.776 143.599V148.55L164.526 201.941Z" fill="#A8A8A8"/>
<path d="M118.706 101.566L111.911 97.9739L112.202 97.4885L119.483 100.983L118.706 101.566Z" fill="#565656"/>
<path d="M131.714 98.6534L128.705 100.983L129.288 101.372L132.006 99.1388L131.714 98.6534Z" fill="#565656"/>
<path d="M115.697 108.652L118.706 106.905L119.095 107.196L116.28 109.235L115.697 108.652Z" fill="#565656"/>
<path d="M131.714 109.235L128.705 107.196L129.288 106.614L132.588 108.458L131.714 109.235Z" fill="#565656"/>
<path d="M191.188 167.793C189.953 167.698 189.09 167.199 188.813 166.962V168.981C189.248 169.218 190.404 169.764 191.544 170.049C192.684 170.334 193.919 170.168 194.394 170.049V167.793C193.84 167.833 192.423 167.888 191.188 167.793Z" fill="#565658"/>
<path d="M190.594 170.643C189.834 170.548 189.09 170.366 188.813 170.287C188.783 172.854 188.962 174.194 189.288 176.581C191.032 176.842 191.978 176.877 193.563 176.581V173.018H193.919V170.881C193.127 170.841 191.354 170.738 190.594 170.643Z" fill="#565658"/>
<path d="M193.919 155.8C191.544 155.919 189.407 154.375 189.407 154.375V156.869C189.407 156.869 192.035 157.983 193.8 157.937C194.837 157.911 195.407 157.715 196.413 157.462C199.291 156.74 203.3 154.256 203.3 154.256L203.182 152C203.182 152 196.294 155.681 193.919 155.8Z" fill="white"/>
<path d="M195.344 139.056C194.316 138.094 191.901 137.987 191.901 137.987L193.326 136.443C193.326 136.443 195.522 136.637 196.532 137.393C197.761 138.314 198.194 139.531 198.432 140.837C198.669 142.143 197.719 150.337 197.719 150.337L200.926 149.268C200.926 149.268 202.865 142.618 203.182 140.481C203.499 138.343 203.775 137.766 203.182 136.206C202.678 134.879 201.519 133.712 201.519 133.712C201.519 133.712 204.132 134.306 204.726 135.374C205.319 136.443 205.151 138.493 204.963 140.481C204.694 143.329 202.826 147.487 202.826 147.487L203.182 150.337C203.182 150.337 198.941 152.734 195.938 153.306C193.387 153.791 189.288 153.424 189.288 153.424V151.049L195.819 150.812C195.819 150.812 196.651 141.787 196.532 141.074C196.413 140.362 196.012 139.68 195.344 139.056Z" fill="white"/>
<path d="M189.407 141.194C189.407 141.194 189.288 139.769 191.663 139.65C194.038 139.531 194.869 141.075 195.225 142.144C195.582 143.212 194.632 153.306 194.038 154.256C193.444 155.206 192.981 155.609 192.019 155.681C190.94 155.761 189.644 154.256 189.644 154.256L184.894 148.437C185.03 147.241 185.32 146.795 186.438 146.656L189.407 149.269V141.194Z" fill="#565558"/>
<path d="M193.919 161.499C189.881 161.143 189.05 159.718 189.05 159.718V161.262C189.05 161.262 192.004 163.083 193.919 162.924C194.782 162.852 195.23 162.591 196.056 162.33C199.182 161.343 203.419 158.887 203.419 158.887V157.699C203.419 157.699 197.956 161.855 193.919 161.499Z" fill="#6B5249"/>
<defs>
<linearGradient id="paint0_linear_81_6923" x1="164.915" y1="173.594" x2="205.298" y2="174.759" gradientUnits="userSpaceOnUse">
<stop stop-color="#148D65"/>
<stop offset="1" stop-color="#148D65" stop-opacity="0"/>
</linearGradient>
<linearGradient id="paint1_linear_81_6923" x1="78.2262" y1="124.767" x2="78.2429" y2="137.06" gradientUnits="userSpaceOnUse">
<stop stop-color="#4EB073"/>
<stop offset="0.69906" stop-color="#78C77F"/>
</linearGradient>
<linearGradient id="paint2_linear_81_6923" x1="78.0805" y1="113.117" x2="78.1276" y2="130.304" gradientUnits="userSpaceOnUse">
<stop stop-color="#4EB073"/>
<stop offset="0.69906" stop-color="#78C77F"/>
</linearGradient>
<linearGradient id="paint3_linear_81_6923" x1="100.165" y1="148.937" x2="100.197" y2="171.456" gradientUnits="userSpaceOnUse">
<stop stop-color="#4EB073"/>
<stop offset="0.69906" stop-color="#78C77F"/>
</linearGradient>
<linearGradient id="paint4_linear_81_6923" x1="118.619" y1="155.442" x2="118.637" y2="168.973" gradientUnits="userSpaceOnUse">
<stop stop-color="#4EB073"/>
<stop offset="0.69906" stop-color="#78C77F"/>
</linearGradient>
<linearGradient id="paint5_linear_81_6923" x1="118.465" y1="143.501" x2="118.515" y2="161.644" gradientUnits="userSpaceOnUse">
<stop stop-color="#4EB073"/>
<stop offset="0.69906" stop-color="#78C77F"/>
</linearGradient>
<linearGradient id="paint6_linear_81_6923" x1="98.9558" y1="128.844" x2="99.0417" y2="159.32" gradientUnits="userSpaceOnUse">
<stop stop-color="#4EB073"/>
<stop offset="0.69906" stop-color="#78C77F"/>
</linearGradient>
<linearGradient id="paint7_linear_81_6923" x1="39.0706" y1="150.103" x2="39.1168" y2="183.338" gradientUnits="userSpaceOnUse">
<stop stop-color="#4EB073"/>
<stop offset="0.69906" stop-color="#78C77F"/>
</linearGradient>
<linearGradient id="paint8_linear_81_6923" x1="231.605" y1="142.352" x2="252.671" y2="142.371" gradientUnits="userSpaceOnUse">
<stop stop-color="#138B63"/>
<stop offset="1" stop-color="#16986D"/>
</linearGradient>
<linearGradient id="paint9_linear_81_6923" x1="200.444" y1="145.152" x2="200.444" y2="145.734" gradientUnits="userSpaceOnUse">
<stop stop-color="#BD3A2C"/>
<stop offset="1" stop-color="#DA2A1C"/>
</linearGradient>
<linearGradient id="paint10_linear_81_6923" x1="202.968" y1="146.608" x2="202.968" y2="147.19" gradientUnits="userSpaceOnUse">
<stop stop-color="#565658"/>
<stop offset="1" stop-color="#585859"/>
</linearGradient>
<linearGradient id="paint11_linear_81_6923" x1="39.1585" y1="119.135" x2="39.2849" y2="164.75" gradientUnits="userSpaceOnUse">
<stop stop-color="#4EB073"/>
<stop offset="0.69906" stop-color="#78C77F"/>
</linearGradient>
</defs>
</svg>
