<svg width="1440" height="1167" viewBox="0 0 1440 1167" fill="none" xmlns="http://www.w3.org/2000/svg">
<rect x="-1" y="222" width="1440" height="158" fill="#E8B80C"/>
<rect x="-1" y="695" width="1440" height="158" fill="#E8B80C"/>
<ellipse cx="53.5" cy="1126" rx="87.5" ry="75" fill="#7DB5D7"/>
<circle cx="53" cy="502" r="21" fill="#FF9B21"/>
<circle cx="428" cy="1072" r="21" fill="#2B44FF"/>
<circle cx="891" cy="1157" r="21" fill="#90C6E6"/>
<circle cx="1070" cy="564" r="21" fill="#2B44FF"/>
<circle cx="1440" cy="21" r="21" fill="#DDE3E9"/>
<circle cx="1398" cy="164" r="21" fill="#F2938C"/>
<circle cx="642" cy="63" r="21" fill="#6E74B0"/>
<circle cx="11" cy="105" r="21" fill="#69A1AC"/>
<path d="M154.177 52L134.177 102.5L123 82L154.177 52Z" fill="#C4C4C4"/>
<path d="M407.177 528L387.177 578.5L376 558L407.177 528Z" fill="#89C5CC"/>
<path d="M406.177 114L386.177 164.5L375 144L406.177 114Z" fill="#65B6E6"/>
<path d="M947.177 52L927.177 102.5L916 82L947.177 52Z" fill="#FEDF30"/>
<path d="M1403 535L1423 585.5L1434.18 565L1403 535Z" fill="#C4C4C4"/>
<path d="M1403 535L1423 585.5L1434.18 565L1403 535Z" fill="#4EB073"/>
<path d="M1239 1069L1274.92 1117L1295 1097.51L1239 1069Z" fill="#5C63AB"/>
<path d="M633 1098L668.924 1175L689 1143.74L633 1098Z" fill="#E8B80C"/>
</svg>
