<svg width="101" height="100" viewBox="0 0 101 100" fill="none" xmlns="http://www.w3.org/2000/svg">
<path d="M32.25 0.644409H1.25V11.8334H28.25C28.25 11.8334 39.25 12.3199 39.25 21.5629C39.25 30.806 30.25 32.2654 30.25 32.2654H1.25V57.5623H15.25V42.4815H28.25L37.75 57.5623H53.75L40.75 39.5626C40.75 39.5626 53.75 36.6437 52.25 19.1306C50.75 1.61736 32.25 0.644409 32.25 0.644409Z" fill="white" stroke="black" stroke-width="0.998437"/>
<path d="M54.2505 10.8604H98.2505V0.644409H54.2505V10.8604Z" fill="white"/>
<path d="M94.7505 33.7249V23.5089H54.2505V57.5623H99.7505V47.3462H67.7505V33.7249H94.7505Z" fill="white"/>
<path d="M54.2505 10.8604H98.2505V0.644409H54.2505V10.8604Z" stroke="black" stroke-width="0.998437"/>
<path d="M94.7505 33.7249V23.5089H54.2505V57.5623H99.7505V47.3462H67.7505V33.7249H94.7505Z" stroke="black" stroke-width="0.998437"/>
<path d="M71.25 94.4736H89.25" stroke="black" stroke-width="0.499219"/>
<path d="M63.7499 86.6611V90.5674H66.7499L62.7499 96.7058V92.7995H59.75L63.7499 86.6611Z" fill="white" stroke="black" stroke-width="0.499219" stroke-linecap="round" stroke-linejoin="round"/>
<path d="M42.2506 49.8307C42.2506 48.9426 41.9345 48.091 41.3719 47.4631C40.8093 46.8352 40.0462 46.4824 39.2505 46.4824H37.7505V47.5985C37.7505 48.4865 38.0666 49.3381 38.6292 49.9661C39.1918 50.594 39.9549 50.9467 40.7506 50.9467H42.2506" fill="white"/>
<path d="M42.2506 49.8307C42.2506 48.9426 41.9345 48.091 41.3719 47.4631C40.8093 46.8352 40.0462 46.4824 39.2505 46.4824H37.7505V47.5985C37.7505 48.4865 38.0666 49.3381 38.6292 49.9661C39.1918 50.594 39.9549 50.9467 40.7506 50.9467H42.2506" stroke="#020202" stroke-width="0.499219" stroke-linecap="round" stroke-linejoin="round"/>
<path d="M42.25 52.0629C42.25 51.1748 42.5661 50.3232 43.1287 49.6953C43.6913 49.0674 44.4544 48.7146 45.25 48.7146H46.75V49.2726C46.75 50.1607 46.4339 51.0123 45.8713 51.6402C45.3087 52.2681 44.5456 52.6209 43.75 52.6209H42.25" fill="white"/>
<path d="M42.25 52.0629C42.25 51.1748 42.5661 50.3232 43.1287 49.6953C43.6913 49.0674 44.4544 48.7146 45.25 48.7146H46.75V49.2726C46.75 50.1607 46.4339 51.0123 45.8713 51.6402C45.3087 52.2681 44.5456 52.6209 43.75 52.6209H42.25" stroke="#020202" stroke-width="0.499219" stroke-linecap="round" stroke-linejoin="round"/>
<path d="M42.25 55.4111V49.8307" stroke="#020202" stroke-width="0.499219" stroke-linecap="round" stroke-linejoin="round"/>
<path d="M3.25049 89.4513H3.75049H3.25049ZM7.75049 84.429V84.987V84.429ZM11.7505 89.4513H12.2505H11.7505ZM4.55049 85.8799L4.90049 86.2705L4.55049 85.8799ZM10.9505 85.8799L10.6005 86.2705L10.9505 85.8799Z" fill="white"/>
<path d="M10.9505 85.8799L10.6005 86.2705M3.25049 89.4513H3.75049H3.25049ZM7.75049 84.429V84.987V84.429ZM11.7505 89.4513H12.2505H11.7505ZM4.55049 85.8799L4.90049 86.2705L4.55049 85.8799Z" stroke="black" stroke-width="0.499219" stroke-linecap="round" stroke-linejoin="round"/>
<path d="M6.25098 91.6835C5.83121 91.3321 5.52114 90.8422 5.36469 90.2833C5.20824 89.7243 5.21334 89.1245 5.37927 88.569C5.5452 88.0134 5.86354 87.5302 6.2892 87.1878C6.71486 86.8454 7.22627 86.6611 7.75098 86.6611C8.27568 86.6611 8.78709 86.8454 9.21275 87.1878C9.63842 87.5302 9.95676 88.0134 10.1227 88.569C10.2886 89.1245 10.2937 89.7243 10.1373 90.2833C9.98081 90.8422 9.67074 91.3321 9.25098 91.6835C9.05576 91.8991 8.90878 92.1631 8.82191 92.4539C8.73505 92.7447 8.71075 93.0543 8.75098 93.3576C8.75098 93.6536 8.64562 93.9374 8.45808 94.1467C8.27055 94.3561 8.01619 94.4736 7.75098 94.4736C7.48576 94.4736 7.23141 94.3561 7.04387 94.1467C6.85633 93.9374 6.75098 93.6536 6.75098 93.3576C6.7912 93.0543 6.7669 92.7447 6.68004 92.4539C6.59318 92.1631 6.44619 91.8991 6.25098 91.6835Z" fill="white"/>
<path d="M6.25098 91.6835C5.83121 91.3321 5.52114 90.8422 5.36469 90.2833C5.20824 89.7243 5.21334 89.1245 5.37927 88.569C5.5452 88.0134 5.86354 87.5302 6.2892 87.1878C6.71486 86.8454 7.22627 86.6611 7.75098 86.6611C8.27568 86.6611 8.78709 86.8454 9.21275 87.1878C9.63842 87.5302 9.95676 88.0134 10.1227 88.569C10.2886 89.1245 10.2937 89.7243 10.1373 90.2833C9.98081 90.8422 9.67074 91.3321 9.25098 91.6835C9.05576 91.8991 8.90878 92.1631 8.82191 92.4539C8.73505 92.7447 8.71075 93.0543 8.75098 93.3576C8.75098 93.6536 8.64562 93.9374 8.45808 94.1467C8.27055 94.3561 8.01619 94.4736 7.75098 94.4736C7.48576 94.4736 7.23141 94.3561 7.04387 94.1467C6.85633 93.9374 6.75098 93.6536 6.75098 93.3576C6.7912 93.0543 6.7669 92.7447 6.68004 92.4539C6.59318 92.1631 6.44619 91.8991 6.25098 91.6835" stroke="black" stroke-width="0.499219" stroke-linecap="round" stroke-linejoin="round"/>
<path d="M89.249 40.9018C90.629 40.9018 91.749 39.7802 91.749 38.3907C91.749 37.0012 90.629 35.8795 89.249 35.8795V40.9018Z" fill="white" stroke="black" stroke-width="0.499219" stroke-linecap="round" stroke-linejoin="round"/>
<path d="M89.249 40.9019C89.249 42.442 90.2541 43.692 91.4991 43.692C92.7441 43.692 93.7491 42.442 93.7491 40.9019H89.249Z" fill="white" stroke="black" stroke-width="0.499219" stroke-linecap="round" stroke-linejoin="round"/>
<path d="M89.249 40.9019C87.869 40.9019 86.749 42.0235 86.749 43.413C86.749 44.8025 87.869 45.9242 89.249 45.9242V40.9019Z" fill="white" stroke="black" stroke-width="0.499219" stroke-linecap="round" stroke-linejoin="round"/>
<path d="M89.2494 40.902C89.2494 39.3618 88.2444 38.1118 86.9995 38.1118C85.7545 38.1118 84.7495 39.3618 84.7495 40.902H89.2494Z" fill="white" stroke="black" stroke-width="0.499219" stroke-linecap="round" stroke-linejoin="round"/>
<path d="M80.25 67.4089L79.25 66.2928L80.25 67.4089Z" fill="white"/>
<path d="M80.25 67.4089L79.25 66.2928" stroke="#2C3E50" stroke-width="0.499219" stroke-linecap="round" stroke-linejoin="round"/>
<path d="M80.25 66.8507L81.25 65.7346L80.25 66.8507Z" fill="white"/>
<path d="M80.25 66.8507L81.25 65.7346" stroke="#2C3E50" stroke-width="0.499219" stroke-linecap="round" stroke-linejoin="round"/>
<path d="M80.25 71.873V64.6185V71.873Z" fill="white"/>
<path d="M80.25 71.873V64.6185" stroke="#2C3E50" stroke-width="0.499219" stroke-linecap="round" stroke-linejoin="round"/>
<path d="M79.1618 69.08C78.943 69.0657 78.7297 68.998 78.5369 68.8818C78.3441 68.7657 78.1764 68.6037 78.0457 68.4074C77.9149 68.2112 77.8243 67.9853 77.7802 67.7457C77.7361 67.5062 77.7395 67.2587 77.7903 67.0208C77.6089 66.8525 77.4656 66.6387 77.3721 66.3969C77.2786 66.1551 77.2377 65.892 77.2525 65.6292C77.2673 65.3664 77.3375 65.1112 77.4574 64.8843C77.5772 64.6575 77.7434 64.4654 77.9423 64.3238C77.768 63.9782 77.7093 63.5747 77.7766 63.1853C77.844 62.7959 78.033 62.4458 78.3101 62.1974C78.5871 61.949 78.9342 61.8185 79.2894 61.8291C79.6447 61.8397 79.985 61.9907 80.2498 62.2552C80.5147 61.9911 80.8549 61.8404 81.2099 61.8301C81.565 61.8197 81.9118 61.9503 82.1887 62.1985C82.4655 62.4468 82.6545 62.7966 82.7219 63.1858C82.7893 63.575 82.7308 63.9782 82.5568 64.3238C82.7559 64.4653 82.9222 64.6573 83.0421 64.8841C83.1621 65.1109 83.2324 65.3662 83.2473 65.629C83.2621 65.8919 83.2212 66.155 83.1277 66.3968C83.0342 66.6387 82.8908 66.8525 82.7093 67.0208C82.7618 67.2668 82.7637 67.5228 82.7148 67.7697C82.6659 68.0166 82.5676 68.248 82.4272 68.4464C82.2867 68.6448 82.1078 68.8051 81.9039 68.9154C81.7 69.0256 81.4764 69.0828 81.2498 69.0827H79.2498L79.1618 69.08Z" fill="white" stroke="#2C3E50" stroke-width="0.499219" stroke-linecap="round" stroke-linejoin="round"/>
<path d="M35.25 81.6385L45.7501 99.4957" stroke="black" stroke-width="0.499219"/>
<path d="M31.75 77.7325H1.25" stroke="black" stroke-width="0.499219"/>
<path d="M34.2505 79.5201L35.7505 82.4163C36.4343 81.9757 37.0021 81.3421 37.3971 80.579C37.792 79.816 38.0001 78.9504 38.0005 78.0692H35.0005C35.0007 78.3633 34.9314 78.6522 34.7998 78.9069C34.6681 79.1616 34.4787 79.3731 34.2505 79.5201Z" fill="white"/>
<path d="M34.2505 79.5201L35.7505 82.4163C36.4343 81.9757 37.0021 81.3421 37.3971 80.579C37.792 79.816 38.0001 78.9504 38.0005 78.0692H35.0005C35.0007 78.3633 34.9314 78.6522 34.7998 78.9069C34.6681 79.1616 34.4787 79.3731 34.2505 79.5201" stroke="black" stroke-width="0.499219" stroke-linecap="round" stroke-linejoin="round"/>
<path d="M34.2506 76.6182L35.7506 73.7219C35.0665 73.2811 34.2905 73.0491 33.5005 73.0491C32.7106 73.0491 31.9346 73.2811 31.2505 73.7219L32.7505 76.6182C32.9786 76.4712 33.2372 76.3939 33.5005 76.3939C33.7639 76.3939 34.0225 76.4712 34.2506 76.6182Z" fill="white" stroke="black" stroke-width="0.499219" stroke-linecap="round" stroke-linejoin="round"/>
<path d="M32.7505 79.5201L31.2505 82.4163C30.5667 81.9757 29.9988 81.3421 29.6039 80.579C29.209 79.816 29.0009 78.9504 29.0005 78.0692H32.0005C32.0003 78.3633 32.0695 78.6522 32.2012 78.9069C32.3329 79.1616 32.5223 79.3731 32.7505 79.5201Z" fill="white"/>
<path d="M32.7505 79.5201L31.2505 82.4163C30.5667 81.9757 29.9988 81.3421 29.6039 80.579C29.209 79.816 29.0009 78.9504 29.0005 78.0692H32.0005C32.0003 78.3633 32.0695 78.6522 32.2012 78.9069C32.3329 79.1616 32.5223 79.3731 32.7505 79.5201" stroke="black" stroke-width="0.499219" stroke-linecap="round" stroke-linejoin="round"/>
<path d="M95.8807 94.1946C95.284 94.1946 94.7117 94.4591 94.2898 94.9301C93.8678 95.401 93.6308 96.0397 93.6308 96.7057L95.8807 94.1946ZM95.8807 91.9624C95.284 91.9624 94.7117 92.227 94.2898 92.6979C93.8678 93.1689 93.6308 93.8076 93.6308 94.4736L95.8807 91.9624ZM95.8807 89.7303C95.284 89.7303 94.7117 89.9948 94.2898 90.4658C93.8678 90.9367 93.6308 91.5754 93.6308 92.2414L95.8807 89.7303ZM91.6309 94.1946C92.7358 94.1946 93.6308 95.319 93.6308 96.7057L91.6309 94.1946ZM91.6309 91.9624C92.7358 91.9624 93.6308 93.0869 93.6308 94.4736L91.6309 91.9624ZM91.6309 89.7303C92.7358 89.7303 93.6308 90.8547 93.6308 92.2414L91.6309 89.7303ZM93.6308 88.0562V91.4044V88.0562Z" fill="white"/>
<path d="M93.6308 88.0562V91.4044M95.8807 94.1946C95.284 94.1946 94.7117 94.4591 94.2898 94.9301C93.8678 95.401 93.6308 96.0397 93.6308 96.7057L95.8807 94.1946ZM95.8807 91.9624C95.284 91.9624 94.7117 92.227 94.2898 92.6979C93.8678 93.1689 93.6308 93.8076 93.6308 94.4736L95.8807 91.9624ZM95.8807 89.7303C95.284 89.7303 94.7117 89.9948 94.2898 90.4658C93.8678 90.9367 93.6308 91.5754 93.6308 92.2414L95.8807 89.7303ZM91.6309 94.1946C92.7358 94.1946 93.6308 95.319 93.6308 96.7057L91.6309 94.1946ZM91.6309 91.9624C92.7358 91.9624 93.6308 93.0869 93.6308 94.4736L91.6309 91.9624ZM91.6309 89.7303C92.7358 89.7303 93.6308 90.8547 93.6308 92.2414L91.6309 89.7303Z" stroke="black" stroke-width="0.499219" stroke-linecap="round" stroke-linejoin="round"/>
<path d="M4.87449 37.2383C4.26769 37.8101 3.83299 38.5763 3.62922 39.433C3.42546 40.2897 3.46247 41.1956 3.73526 42.0281C4.00805 42.8605 4.50343 43.5793 5.15434 44.0872C5.80525 44.595 6.58026 44.8674 7.37445 44.8674C8.16864 44.8674 8.94365 44.595 9.59456 44.0872C10.2455 43.5793 10.7409 42.8605 11.0136 42.0281C11.2864 41.1956 11.3234 40.2897 11.1197 39.433C10.9159 38.5763 10.4812 37.8101 9.87441 37.2383" fill="white"/>
<path d="M4.87449 37.2383C4.26769 37.8101 3.83299 38.5763 3.62922 39.433C3.42546 40.2897 3.46247 41.1956 3.73526 42.0281C4.00805 42.8605 4.50343 43.5793 5.15434 44.0872C5.80525 44.595 6.58026 44.8674 7.37445 44.8674C8.16864 44.8674 8.94365 44.595 9.59456 44.0872C10.2455 43.5793 10.7409 42.8605 11.0136 42.0281C11.2864 41.1956 11.3234 40.2897 11.1197 39.433C10.9159 38.5763 10.4812 37.8101 9.87441 37.2383" stroke="black" stroke-width="0.499219" stroke-linecap="round" stroke-linejoin="round"/>
<path d="M7.37402 36.1222V40.5865" stroke="black" stroke-width="0.499219" stroke-linecap="round" stroke-linejoin="round"/>
<path d="M11.25 41.46C21.4167 39.5999 41.45 39.3396 42.25 50.9467" stroke="black" stroke-width="0.499219"/>
<path d="M54.2505 6.48206H88.7505" stroke="black" stroke-width="0.499219"/>
<path d="M63.2495 0.644409V6.48214H70.2495V0.644409H63.2495Z" fill="white" stroke="black" stroke-width="0.499219"/>
<path d="M73.75 6.48206V10.8604" stroke="black" stroke-width="0.499219"/>
<path d="M66.75 28.3737H59.75V38.5897" stroke="black" stroke-width="0.499219"/>
<path d="M94.75 26.4277C93.25 27.5628 91.15 30.2223 94.75 31.779" stroke="black" stroke-width="0.499219"/>
<path d="M1.25 35.6707C2.58333 35.6707 5.25 34.9897 5.25 32.2654" stroke="black" stroke-width="0.499219"/>
<path d="M50.7495 53.6705H43.2495L45.7495 57.5624" stroke="black" stroke-width="0.499219"/>
</svg>
