<svg width="260" height="428" viewBox="0 0 260 428" fill="none" xmlns="http://www.w3.org/2000/svg">
<path fill-rule="evenodd" clip-rule="evenodd" d="M128.873 53.6707C124.067 48.0583 120.814 41.1801 121.358 33.473C122.924 11.2666 153.992 16.1517 160.035 27.3596C166.079 38.5675 165.361 66.9972 157.55 69.0004C154.435 69.7992 147.8 67.8423 141.046 63.7922L145.285 93.6308H120.256L128.873 53.6707Z" fill="#B28B67"/>
<path fill-rule="evenodd" clip-rule="evenodd" d="M171.124 11.8223C170.606 10.0096 169.212 8.45748 167.333 7.99703C166.877 7.88534 166.407 7.84023 165.938 7.85904C165.77 7.86571 165.722 7.91396 165.644 7.79695C165.586 7.71021 165.584 7.49828 165.56 7.39633C165.486 7.07932 165.392 6.76626 165.277 6.46131C164.884 5.42121 164.223 4.50071 163.427 3.72529C161.937 2.27462 159.925 1.27343 157.833 1.0923C156.689 0.993218 155.553 1.17823 154.471 1.54867C153.911 1.74043 153.367 1.97921 152.838 2.2432C152.679 2.32266 152.162 2.71183 152.002 2.68662C151.826 2.65882 151.471 2.22228 151.327 2.1127C149.553 0.758186 147.362 0.225632 145.152 0.241557C142.657 0.26025 140.255 0.384274 138.175 1.89737C137.734 2.21772 137.315 2.56846 136.915 2.93774C136.705 3.13215 136.501 3.33386 136.307 3.54395C136.19 3.6707 136.076 3.80032 135.966 3.9334C135.779 4.1593 135.809 4.23352 135.548 4.0759C134.547 3.47063 133.387 3.18756 132.218 3.33046C131.524 3.41537 130.849 3.62266 130.208 3.89551C129.99 3.9884 129.484 4.3589 129.252 4.36251C129.021 4.36606 128.523 4.0226 128.285 3.93531C127.001 3.46368 125.617 3.34742 124.267 3.56535C122.875 3.79023 121.507 4.34289 120.328 5.10659C119.761 5.47396 119.266 5.88099 118.868 6.42724C118.696 6.66309 118.541 6.91257 118.347 7.13125C118.233 7.25929 118.007 7.39067 117.946 7.55272C117.983 7.45568 116.423 6.85764 116.276 6.81941C115.493 6.61573 114.694 6.65702 113.927 6.90834C112.484 7.38093 111.242 8.44072 110.222 9.52729C109.698 10.0854 109.24 10.7023 108.851 11.3596C108.664 11.6744 108.494 11.9982 108.337 12.3289C108.262 12.4892 108.212 12.6896 108.112 12.8339C107.984 13.0199 107.897 13.0234 107.665 13.1045C106.484 13.5162 105.407 14.2132 104.587 15.1548C103.757 16.1076 103.219 17.2808 102.994 18.5164C102.98 18.5892 102.972 18.8908 102.93 18.9302C102.871 18.9844 102.633 18.9604 102.544 18.9709C102.232 19.0072 101.923 19.0613 101.619 19.1331C101.057 19.2654 100.51 19.4602 99.9922 19.7149C97.9752 20.7079 96.5328 22.5694 95.8269 24.664C95.0862 26.8622 95.0993 29.3807 95.9846 31.5379C96.1276 31.8863 96.2978 32.2245 96.4976 32.5444C96.6204 32.7408 96.66 32.7413 96.5803 32.9474C96.4914 33.1766 96.3292 33.3994 96.2237 33.6234C95.8796 34.3544 95.6391 35.1297 95.4871 35.9215C95.2379 37.2204 95.1143 38.5854 95.3602 39.8942C95.4744 40.5019 95.6734 41.096 95.9769 41.6373C96.1317 41.9133 96.3128 42.175 96.5172 42.4172C96.6234 42.5429 96.7361 42.663 96.854 42.778C96.9215 42.8437 97.0099 42.9012 97.0672 42.9746C97.2072 43.1535 97.2366 43.0064 97.1644 43.2692C97.0635 43.6365 96.8347 43.999 96.6946 44.3565C96.5502 44.7249 96.4197 45.0983 96.3004 45.4754C96.0587 46.2391 95.8543 47.0165 95.7265 47.8074C95.481 49.3257 95.5241 50.9435 96.2459 52.337C96.5546 52.9331 96.9973 53.456 97.5343 53.8627C97.7972 54.0617 98.0818 54.2332 98.3805 54.3741C98.534 54.4466 98.7299 54.4777 98.7999 54.6253C98.8752 54.7841 98.7634 55.0994 98.7379 55.2769C98.5159 56.8212 98.4046 58.4427 98.866 59.9561C99.291 61.35 100.227 62.5807 101.441 63.3955C103.798 64.9761 106.974 64.887 109.451 63.6216C110.096 63.2917 110.7 62.8821 111.238 62.3991C112.61 64.2362 115.433 64.1781 117.437 63.6546C119.935 63.0025 121.939 61.2745 123.094 59.0042C124.672 60.9166 127.986 60.2961 129.081 58.2215C129.349 57.7137 129.508 57.1541 129.586 56.5878C129.627 56.2901 129.601 55.9897 129.632 55.6943C129.671 55.3178 129.924 54.952 130.069 54.5879C130.352 53.8792 130.528 53.1471 130.535 52.3826C130.539 51.9835 130.489 51.5945 130.45 51.1986C130.416 50.8422 130.515 50.5101 130.572 50.1584C129.931 50.2633 129.151 50.0914 128.547 49.9066C127.955 49.7253 127.401 49.2477 126.983 48.8115C126.012 47.7986 125.419 46.4708 125.014 45.1492C124.123 42.2487 124.488 38.7687 127.42 37.1769C128.786 36.4353 132.879 36.4377 134.505 36.8042C136.216 37.1896 138.155 40.9452 138.251 41.2981C138.31 41.5166 138.28 41.787 138.482 41.9326C138.925 42.2527 139.656 41.6972 139.983 41.4231C140.547 40.9499 140.95 40.3204 141.298 39.6823C142.058 38.2921 142.67 36.8013 143.103 35.2794C143.436 34.1061 143.649 32.8962 144.085 31.7528C144.519 30.615 145.202 29.5981 146.265 28.9536C147.422 28.2525 148.747 27.8832 150.017 27.4426C151.275 27.0059 152.511 26.4722 153.487 25.5456C153.701 25.3418 153.909 25.1254 154.082 24.8855C154.218 24.6961 154.353 24.3336 154.561 24.2135C154.883 24.0267 155.355 24.5125 155.634 24.6888C157.011 25.559 158.16 26.7727 159.086 28.0985C160.008 29.4171 160.764 30.6859 161.378 32.1583C161.834 33.2504 162.118 34.6489 162.92 35.5438C163.278 35.9434 165.938 36.1852 166.799 35.8363C167.661 35.4874 168.627 34.5816 168.916 34.0139C169.212 33.4328 169.282 32.7945 169.156 32.1583C169.082 31.7841 168.93 31.4345 168.847 31.0669C168.777 30.7582 168.713 30.4663 168.562 30.1834C168.276 29.6474 167.787 29.2621 167.197 29.101C167.811 28.5379 168.319 27.8643 168.671 27.1113C169.037 26.329 169.347 25.3776 169.435 24.519C169.506 23.8216 169.396 23.0991 169.012 22.4997C168.61 21.871 167.897 21.4609 167.28 21.0687C168.222 20.335 169.029 19.4428 169.692 18.455C170.981 16.534 171.779 14.1125 171.124 11.8223Z" fill="#191847"/>
<path fill-rule="evenodd" clip-rule="evenodd" d="M111.991 179.5L162.135 311.518L197.282 408.822H217.323L169.01 179.5L111.991 179.5Z" fill="#1F28CF"/>
<path fill-rule="evenodd" clip-rule="evenodd" d="M99.5974 179.5C99.0524 224.798 99.4464 285.784 98.1764 288.608C97.3298 290.491 70.9952 311.938 19.1729 352.952L29.5027 370.429C91.0278 330.952 123.363 308.584 126.509 303.324C131.227 295.435 154.931 222.836 167.264 179.5H99.5974Z" fill="#2B44FF"/>
<path fill-rule="evenodd" clip-rule="evenodd" d="M0.999565 364.972L18.7253 351.497L32.7056 368.1C33.6481 380.728 37.6991 394.856 44.8587 410.483L41.6091 413.201L16.3114 383.157L9.28163 371.52L7.65687 372.879L0.999565 364.972Z" fill="#191847"/>
<path fill-rule="evenodd" clip-rule="evenodd" d="M195.422 427.5L196.465 405.709H218.366C228.751 412.973 242.308 418.853 259.039 423.349V427.5H219.409L205.851 425.425V427.5H195.422Z" fill="#191847"/>
<path fill-rule="evenodd" clip-rule="evenodd" d="M200.389 166.374L233.655 190.679C242.678 193.102 250.216 196.116 256.269 199.721C257.699 201.018 259.428 203.643 253.497 203.189C247.567 202.736 241.308 202.524 240.49 204.536C239.672 206.549 243.261 208.956 241.606 211.671C240.504 213.482 235.294 208.942 225.977 198.053L193.035 184.461L200.389 166.374ZM72.6616 167.213L94.4554 167.298C80.9987 210.52 73.7342 233.454 72.6616 236.098C70.2484 242.049 75.3551 251.111 77.5389 255.981C70.4263 259.148 71.1841 247.421 62.2118 251.574C54.0222 255.365 47.7925 262.234 38.3306 256.425C37.1674 255.711 35.8926 253.022 38.9726 250.92C46.646 245.685 57.7037 236.523 59.1978 233.507C61.2353 229.394 65.7232 207.296 72.6616 167.213Z" fill="#B28B67"/>
<path fill-rule="evenodd" clip-rule="evenodd" d="M134.596 76.2226L143.614 74.6836C177.074 103.443 190.817 158.693 231.83 187.961L221.958 200.135C150.808 191.37 133.173 123.979 134.596 76.2226Z" fill="#E87613"/>
<path fill-rule="evenodd" clip-rule="evenodd" d="M95.2837 188.983C131.443 188.983 158.041 188.983 175.077 188.983C178.723 188.983 178.036 183.744 177.509 181.101C171.426 150.593 147.68 117.708 147.68 74.2809L124.664 70.6898C105.627 101.154 99.0431 138.661 95.2837 188.983Z" fill="#DDE3E9"/>
<path fill-rule="evenodd" clip-rule="evenodd" d="M95.9252 100.634C92.5823 99.6784 89.9352 97.4485 87.9837 93.9449C79.5712 78.8417 82.6093 70.5262 91.5996 67.7929C100.59 65.0595 108.607 70.6897 122.931 70.6897C123.71 70.6897 124.424 70.7383 125.072 70.8355L132.277 71.2446C152.95 140.955 158.651 187.465 149.381 210.774H86.5777C82.8566 219.407 79.2959 226.67 75.8955 232.564H58.7826C57.172 180.751 69.5529 136.774 95.9252 100.634Z" fill="#FF9B21"/>
<path fill-rule="evenodd" clip-rule="evenodd" d="M100.253 174.972C102.228 191.415 105.439 203.349 109.884 210.774H86.5771C90.9177 200.703 95.4763 188.77 100.253 174.972H100.253Z" fill="black" fill-opacity="0.1"/>
</svg>
