<svg width="194" height="339" viewBox="0 0 194 339" fill="none" xmlns="http://www.w3.org/2000/svg">
<path fill-rule="evenodd" clip-rule="evenodd" d="M101.575 15.534C105.881 24.5652 113.508 46.0697 111.129 50.6926L91.6858 57.5896C91.6756 57.5497 91.6655 57.51 91.6554 57.4703C84.2593 59.0872 77.2012 53.8784 75.4366 45.1395L72.1781 29.0025C70.2845 19.6251 75.2032 9.73401 83.1641 6.91001L84.505 6.43435C91.6453 3.90149 98.8078 7.91396 101.575 15.534Z" fill="#191847"/>
<path fill-rule="evenodd" clip-rule="evenodd" d="M82.3385 39.7619C78.349 36.6982 75.1953 32.3101 74.418 26.3869C72.1784 9.32065 93.3463 5.52825 98.9745 12.5001C104.603 19.4719 108.317 41.0118 103.471 44.3938C101.539 45.7426 96.8831 45.866 91.8417 44.4444L99.026 65.8524L82.552 71.8656L82.3385 39.7619Z" fill="#B28B67"/>
<path fill-rule="evenodd" clip-rule="evenodd" d="M86.3853 34.8457C88.9982 43.8629 90.841 54.5653 89.1442 57.8631L69.7448 64.7469C64.2367 43.1979 76.3972 47.9844 72.2289 27.3343C72.7301 26.3601 73.1971 25.4061 73.678 24.5557L73.5338 23.956C75.2718 14.7324 78.7229 9.20433 83.8872 7.3718C91.6336 4.623 94.9284 7.96499 97.7317 10.8003C97.4342 17.5911 91.5796 20.6598 86.9965 26.4532C86.2425 26.0773 85.3631 26.0038 84.4842 26.3156C82.4523 27.0367 81.1934 29.545 81.6724 31.9181C82.1514 34.2912 84.187 35.6304 86.219 34.9094C86.275 34.8895 86.3305 34.8683 86.3853 34.8457Z" fill="#191847"/>
<path fill-rule="evenodd" clip-rule="evenodd" d="M66.9512 220.912C83.128 226.495 97.0849 229.287 108.822 229.287C120.559 229.287 131.461 224.988 141.527 216.391C125.697 210.66 112.66 207.795 102.416 207.795C92.1722 207.795 80.3506 212.168 66.9512 220.912Z" fill="#1F28CF"/>
<path fill-rule="evenodd" clip-rule="evenodd" d="M122.825 237.334C122.669 237.044 122.537 236.73 122.433 236.389C120.271 229.333 85.6356 153.215 82.1851 139.299H121.179C123.803 149.88 135.611 216.279 137.272 229.527C142.516 250.424 153.311 318.101 154.689 322.789C156.139 327.722 147.981 332.86 145.808 326.796C142.349 317.148 134.108 290.452 130.439 274.152C126.998 258.87 124.197 245.122 122.825 237.334Z" fill="#997659"/>
<path fill-rule="evenodd" clip-rule="evenodd" d="M90.9224 246.627C75.0879 251.565 17.1684 260.492 13.1937 261.893C9.10498 263.333 5.51996 252.934 10.5738 250.682C18.6154 247.097 40.7735 238.816 54.2081 235.436C65.014 232.718 74.8746 230.5 81.4947 229.201C80.9339 206.256 78.3701 151.192 80.0505 139.299H114.553C112.942 150.703 99.3199 233.917 96.7881 242.246C95.9847 245.22 93.5873 246.534 90.9224 246.627Z" fill="#B28B67"/>
<path fill-rule="evenodd" clip-rule="evenodd" d="M11.2819 247.939C9.09534 247.514 7.48902 247.422 6.46296 247.664C5.21504 247.959 3.42618 248.634 1.09639 249.689C1.32048 251.397 3.33437 266.739 7.13806 295.716C10.6483 296.12 12.368 295.003 12.2971 292.363C12.2262 289.722 12.1866 287.525 12.1783 285.769L17.4578 262.468C17.5594 262.019 17.3392 261.574 16.9661 261.473C16.9597 261.471 16.9533 261.469 16.9468 261.468L13.9376 260.761C12.6806 258.598 11.9542 256.771 11.7584 255.279C11.5993 254.067 11.7947 252.296 12.3444 249.965L12.3445 249.965C12.5554 249.07 12.1232 248.174 11.379 247.962C11.3469 247.953 11.3146 247.945 11.2819 247.939Z" fill="#E4E4E4"/>
<path fill-rule="evenodd" clip-rule="evenodd" d="M143.333 326.093C142.579 328.587 142.202 330.454 142.202 331.692C142.202 333.198 142.404 335.396 142.809 338.286C144.22 338.286 156.898 338.286 180.843 338.286C181.831 334.239 181.261 332.054 179.131 331.731C177.002 331.408 175.233 331.117 173.825 330.857L156.147 321.095C155.807 320.907 155.408 321.097 155.256 321.518C155.254 321.525 155.251 321.533 155.249 321.54L154.113 324.954C152.141 326.093 150.539 326.663 149.307 326.663C148.306 326.663 146.923 326.162 145.158 325.16L145.158 325.16C144.481 324.776 143.681 325.144 143.37 325.983C143.357 326.019 143.345 326.055 143.333 326.093Z" fill="#E4E4E4"/>
<path fill-rule="evenodd" clip-rule="evenodd" d="M80.1628 139.299C95.3669 133.932 109.753 133.932 123.32 139.299C128.041 165.872 139.51 176.419 141.527 217.161C118.6 231.217 90.2778 207.136 66.6761 220.843C59.9327 201.67 69.3734 155.494 80.1628 139.299Z" fill="#2B44FF"/>
<path fill-rule="evenodd" clip-rule="evenodd" d="M115.679 84.964L137.064 64.2652C140.237 57.8824 143.512 52.7323 146.888 48.8149C147.966 47.9716 149.936 47.1476 148.567 51.5528C147.198 55.9581 145.922 60.6562 147.04 61.6467C148.159 62.6372 150.33 60.3646 151.739 62.1174C152.678 63.2859 148.867 66.3923 140.306 71.4365L125.729 93.8657L115.679 84.964ZM153.92 89.0275L163.311 79.9154C163.907 73.0905 165.203 69.4194 167.199 68.9021C168.627 67.6891 167.015 76.5176 169.838 75.1132C172.661 73.7088 178.961 65.7516 180.353 66.7313C182.412 68.1807 181.546 74.3425 180.015 77.6698C177.152 83.8885 174.442 86.4273 167.467 90.5677C163.819 92.7325 160.027 96.234 156.09 101.072L153.92 89.0275Z" fill="#997659"/>
<path fill-rule="evenodd" clip-rule="evenodd" d="M104.372 83.7355C112.49 81.6811 123.068 77.0287 133.507 65.4873L139.611 76.4887C132.85 87.8559 122.631 98.3152 112.777 100.342C105.012 101.939 99.62 91.7259 104.372 83.7355Z" fill="#2026A2"/>
<path fill-rule="evenodd" clip-rule="evenodd" d="M118.269 100.89C127.324 101.388 141.553 94.8588 160.954 81.3017C167.668 92.5768 171.178 100.919 171.485 106.33C155.293 121.437 140.832 129.899 128.44 133.186C129.972 141.84 130.155 150.379 128.126 158.704C123.956 175.82 85.76 170.001 73.9201 175.764C62.4488 148.143 75.6789 132.65 73.2434 113.807C70.5763 93.1712 80.4226 58.0801 82.4783 57.5897L101.225 53.1179C104.306 68.6285 111.768 84.7525 118.269 100.89Z" fill="#1F28CF"/>
</svg>
