<svg width="313" height="443" viewBox="0 0 313 443" fill="none" xmlns="http://www.w3.org/2000/svg">
<path fill-rule="evenodd" clip-rule="evenodd" d="M122.54 49.2392C115.561 45.2059 110.046 39.4276 108.688 31.6258C104.778 9.14659 141.813 4.13852 151.657 13.3188C161.5 22.499 167.989 50.8703 159.51 55.3281C156.128 57.1059 147.983 57.2712 139.164 55.4016L151.724 83.5969L122.899 91.5276L122.54 49.2392Z" fill="#B28B67"/>
<path fill-rule="evenodd" clip-rule="evenodd" d="M132.914 27.0938C137.521 39.9859 142.132 45.8148 146.749 44.5803C153.675 42.7285 158.516 37.2914 161.555 36.4789C163.77 35.8866 163.928 38.4563 162.944 40.6561C162.132 42.471 156.617 45.4857 157.236 47.7972C157.856 50.1088 162.038 47.0741 162.405 48.4451C163.013 50.7128 164.974 54.7574 160.498 55.9543C155.968 57.1656 142.59 59.187 138.78 53.8704C136.322 50.4392 133.275 42.7816 129.64 30.8975C129.358 30.9422 129.074 31.0023 128.79 31.0781C124.909 32.1159 122.503 35.7238 123.418 39.1367C123.882 40.8692 125.112 42.2184 126.719 42.9911C125.634 45.4442 124.376 48.0397 122.87 50.7736C113.916 48.7326 104.848 38.1738 109.401 24.4843C109.994 18.2158 113.977 13.887 119.267 10.9573C123.406 8.04076 128.122 6.57583 132.417 6.51241C140.464 4.99828 148.074 5.22981 150.406 5.95199C152.165 12.5179 151.24 14.8528 138.835 17.9856C136.176 20.2077 134.492 23.2601 132.914 27.0938Z" fill="#191847"/>
<path fill-rule="evenodd" clip-rule="evenodd" d="M138.807 180.354L196.695 316.523L235.52 431.643H250.852L191.496 180.354L138.807 180.354Z" fill="#997659"/>
<path fill-rule="evenodd" clip-rule="evenodd" d="M127.15 180.354C126.533 228.205 117.543 292.628 116.107 295.611C115.15 297.599 82.0951 322.887 16.9434 371.473L27.503 381.975C104.376 340.319 144.591 316.712 148.148 311.156C153.484 302.822 170.856 226.132 184.804 180.354H127.15Z" fill="#B28B67"/>
<path fill-rule="evenodd" clip-rule="evenodd" d="M15.6745 368.018C12.0889 369.231 9.61506 370.372 8.25303 371.44C6.59648 372.739 4.40529 374.886 1.67947 377.882C3.25415 379.636 17.4061 395.396 44.1353 425.163C49.6897 422.901 51.4559 420.307 49.4338 417.382C47.4117 414.456 45.7575 412.006 44.4713 410.031L35.4741 379.637C35.301 379.052 34.6478 378.719 34.0151 378.894C34.0043 378.897 33.9935 378.9 33.9828 378.904L28.9594 380.436C25.5059 378.968 23.0913 377.467 21.7155 375.935C20.5977 374.691 19.605 372.539 18.7373 369.482L18.7373 369.482C18.4043 368.309 17.1057 367.631 15.8369 367.969C15.7822 367.983 15.728 367.999 15.6745 368.018Z" fill="#E4E4E4"/>
<path fill-rule="evenodd" clip-rule="evenodd" d="M229.242 426.436C227.922 429.723 227.263 432.182 227.263 433.813C227.263 435.797 227.617 438.693 228.326 442.5C230.793 442.5 252.967 442.5 294.847 442.5C296.576 437.168 295.578 434.289 291.854 433.864C288.129 433.439 285.035 433.055 282.572 432.713L251.653 419.853C251.058 419.605 250.361 419.855 250.096 420.41C250.091 420.419 250.087 420.429 250.083 420.438L248.095 424.936C244.647 426.437 241.846 427.188 239.69 427.188C237.939 427.188 235.52 426.528 232.434 425.208L232.434 425.208C231.25 424.701 229.849 425.186 229.307 426.291C229.283 426.339 229.262 426.387 229.242 426.436Z" fill="#E4E4E4"/>
<path fill-rule="evenodd" clip-rule="evenodd" d="M177.728 419.785L250.621 412.433L196.599 180.354H131.311L177.728 419.785Z" fill="#69A1AC"/>
<path fill-rule="evenodd" clip-rule="evenodd" d="M32.022 354.53L79.8358 407.129C130.197 356.009 159.558 322.654 167.918 307.062C176.278 291.471 183.794 249.235 190.464 180.354H116.962C113.318 240.952 110.862 272.662 109.593 275.482C108.325 278.302 82.4676 304.651 32.022 354.53Z" fill="#89C5CC"/>
<path fill-rule="evenodd" clip-rule="evenodd" d="M230.634 156.071L272.223 173.695C282.778 174.31 291.769 175.812 299.195 178.202C301.026 179.211 303.423 181.488 296.684 182.222C289.944 182.955 282.878 183.995 282.309 186.169C281.739 188.343 286.189 190.03 284.803 193.073C283.879 195.102 277.238 191.61 264.881 182.597L225.518 175.61L230.634 156.071ZM87.3201 182.463L111.813 178.188C104.212 224.056 100.039 248.418 99.2942 251.274C97.6181 257.701 104.929 265.732 108.228 270.16C100.79 274.747 99.6028 262.88 90.2473 268.824C81.7079 274.249 75.9048 282.357 64.2678 278.447C62.8371 277.967 60.9379 275.536 64.032 272.82C71.7405 266.056 82.5677 254.691 83.7216 251.379C85.2951 246.863 86.4946 223.891 87.3201 182.463Z" fill="#B28B67"/>
<path fill-rule="evenodd" clip-rule="evenodd" d="M138.06 75.8099L148.07 72.4074C191.294 94.8442 216.712 148.243 268.637 169.659L259.53 184.054C176.861 189.632 144.863 124.676 138.06 75.8099Z" fill="#E87613"/>
<path fill-rule="evenodd" clip-rule="evenodd" d="M114.144 197.858C155.435 190.444 185.808 184.99 205.262 181.496C209.426 180.749 207.716 175.526 206.647 172.927C194.31 142.937 161.383 114.133 153.709 69.6662L126.792 70.7086C110.436 105.806 109.545 145.561 114.144 197.858Z" fill="#DDE3E9"/>
<path fill-rule="evenodd" clip-rule="evenodd" d="M100.43 106.789C96.4274 106.495 92.9961 104.75 90.1365 101.555C77.8096 87.7827 79.818 78.6234 89.6423 73.9701C99.4667 69.3168 109.66 73.4475 126.085 70.5034C126.979 70.3432 127.805 70.2464 128.566 70.213L136.901 69.1519C172.977 136.452 187.768 183.016 181.274 208.845L109.256 221.754C106.521 231.38 103.726 239.567 100.873 246.315L81.2491 249.833C70.2078 196.984 76.6016 149.303 100.43 106.789Z" fill="#FF9B21"/>
<path fill-rule="evenodd" clip-rule="evenodd" d="M119.666 182.6C124.834 199.046 130.617 210.618 137.015 217.315L110.361 222.098C113.543 210.887 116.644 197.72 119.666 182.6Z" fill="black" fill-opacity="0.1"/>
</svg>
